<?xml version="1.0" encoding="UTF-8" standalone="no"?>
<!DOCTYPE svg PUBLIC "-//W3C//DTD SVG 1.1//EN" "http://www.w3.org/Graphics/SVG/1.1/DTD/svg11.dtd">
<svg width="100%" height="100%" viewBox="0 0 727 119" version="1.1" xmlns="http://www.w3.org/2000/svg" xmlns:xlink="http://www.w3.org/1999/xlink" xml:space="preserve" xmlns:serif="http://www.serif.com/" style="fill-rule:evenodd;clip-rule:evenodd;stroke-linejoin:round;stroke-miterlimit:2;">
    <g transform="matrix(0.988996,0,0,1,7.79811,0)">
        <path d="M16,63.222C13.675,63.222 11.787,61.355 11.787,59.055C11.787,56.755 13.675,54.888 16,54.888L20.276,54.888C22.601,54.888 24.489,56.755 24.489,59.055C24.489,61.355 22.601,63.222 20.276,63.222L16,63.222ZM37.379,63.222C35.053,63.222 33.166,61.355 33.166,59.055C33.166,56.755 35.053,54.888 37.379,54.888L45.93,54.888C48.255,54.888 50.143,56.755 50.143,59.055C50.143,61.355 48.255,63.222 45.93,63.222L37.379,63.222ZM63.033,63.222C60.707,63.222 58.819,61.355 58.819,59.055C58.819,56.755 60.707,54.888 63.033,54.888L71.584,54.888C73.909,54.888 75.797,56.755 75.797,59.055C75.797,61.355 73.909,63.222 71.584,63.222L63.033,63.222ZM88.687,63.222C86.362,63.222 84.474,61.355 84.474,59.055C84.474,56.755 86.362,54.888 88.687,54.888L97.239,54.888C99.564,54.888 101.452,56.755 101.452,59.055C101.452,61.355 99.564,63.222 97.239,63.222L88.687,63.222ZM114.34,63.222C112.015,63.222 110.127,61.355 110.127,59.055C110.127,56.755 112.015,54.888 114.34,54.888L122.892,54.888C125.217,54.888 127.105,56.755 127.105,59.055C127.105,61.355 125.217,63.222 122.892,63.222L114.34,63.222ZM139.996,63.222C137.67,63.222 135.783,61.355 135.783,59.055C135.783,56.755 137.67,54.888 139.996,54.888L148.547,54.888C150.872,54.888 152.76,56.755 152.76,59.055C152.76,61.355 150.872,63.222 148.547,63.222L139.996,63.222ZM165.648,63.222C163.323,63.222 161.435,61.355 161.435,59.055C161.435,56.755 163.323,54.888 165.648,54.888L174.2,54.888C176.525,54.888 178.413,56.755 178.413,59.055C178.413,61.355 176.525,63.222 174.2,63.222L165.648,63.222ZM191.303,63.222C188.977,63.222 187.09,61.355 187.09,59.055C187.09,56.755 188.977,54.888 191.303,54.888L199.854,54.888C202.179,54.888 204.067,56.755 204.067,59.055C204.067,61.355 202.179,63.222 199.854,63.222L191.303,63.222ZM216.958,63.222C214.633,63.222 212.745,61.355 212.745,59.055C212.745,56.755 214.633,54.888 216.958,54.888L225.509,54.888C227.834,54.888 229.722,56.755 229.722,59.055C229.722,61.355 227.834,63.222 225.509,63.222L216.958,63.222ZM242.611,63.222C240.286,63.222 238.398,61.355 238.398,59.055C238.398,56.755 240.286,54.888 242.611,54.888L251.163,54.888C253.488,54.888 255.376,56.755 255.376,59.055C255.376,61.355 253.488,63.222 251.163,63.222L242.611,63.222ZM268.266,63.222C265.941,63.222 264.053,61.355 264.053,59.055C264.053,56.755 265.941,54.888 268.266,54.888L276.818,54.888C279.143,54.888 281.031,56.755 281.031,59.055C281.031,61.355 279.143,63.222 276.818,63.222L268.266,63.222ZM293.919,63.222C291.594,63.222 289.706,61.355 289.706,59.055C289.706,56.755 291.594,54.888 293.919,54.888L302.471,54.888C304.796,54.888 306.684,56.755 306.684,59.055C306.684,61.355 304.796,63.222 302.471,63.222L293.919,63.222ZM319.574,63.222C317.249,63.222 315.361,61.355 315.361,59.055C315.361,56.755 317.249,54.888 319.574,54.888L328.125,54.888C330.45,54.888 332.338,56.755 332.338,59.055C332.338,61.355 330.45,63.222 328.125,63.222L319.574,63.222ZM345.228,63.222C342.902,63.222 341.015,61.355 341.015,59.055C341.015,56.755 342.902,54.888 345.228,54.888L353.779,54.888C356.104,54.888 357.992,56.755 357.992,59.055C357.992,61.355 356.104,63.222 353.779,63.222L345.228,63.222ZM370.882,63.222C368.557,63.222 366.669,61.355 366.669,59.055C366.669,56.755 368.557,54.888 370.882,54.888L379.434,54.888C381.759,54.888 383.647,56.755 383.647,59.055C383.647,61.355 381.759,63.222 379.434,63.222L370.882,63.222ZM396.536,63.222C394.211,63.222 392.323,61.355 392.323,59.055C392.323,56.755 394.211,54.888 396.536,54.888L405.087,54.888C407.412,54.888 409.3,56.755 409.3,59.055C409.3,61.355 407.412,63.222 405.087,63.222L396.536,63.222ZM422.191,63.222C419.865,63.222 417.978,61.355 417.978,59.055C417.978,56.755 419.865,54.888 422.191,54.888L430.742,54.888C433.067,54.888 434.955,56.755 434.955,59.055C434.955,61.355 433.067,63.222 430.742,63.222L422.191,63.222ZM447.844,63.222C445.518,63.222 443.631,61.355 443.631,59.055C443.631,56.755 445.518,54.888 447.844,54.888L456.395,54.888C458.72,54.888 460.608,56.755 460.608,59.055C460.608,61.355 458.72,63.222 456.395,63.222L447.844,63.222ZM473.498,63.222C471.173,63.222 469.285,61.355 469.285,59.055C469.285,56.755 471.173,54.888 473.498,54.888L482.05,54.888C484.375,54.888 486.263,56.755 486.263,59.055C486.263,61.355 484.375,63.222 482.05,63.222L473.498,63.222ZM499.152,63.222C496.827,63.222 494.939,61.355 494.939,59.055C494.939,56.755 496.827,54.888 499.152,54.888L507.704,54.888C510.029,54.888 511.917,56.755 511.917,59.055C511.917,61.355 510.029,63.222 507.704,63.222L499.152,63.222ZM524.807,63.222C522.482,63.222 520.594,61.355 520.594,59.055C520.594,56.755 522.482,54.888 524.807,54.888L533.358,54.888C535.684,54.888 537.571,56.755 537.571,59.055C537.571,61.355 535.684,63.222 533.358,63.222L524.807,63.222ZM550.461,63.222C548.135,63.222 546.248,61.355 546.248,59.055C546.248,56.755 548.135,54.888 550.461,54.888L559.012,54.888C561.337,54.888 563.225,56.755 563.225,59.055C563.225,61.355 561.337,63.222 559.012,63.222L550.461,63.222ZM576.115,63.222C573.79,63.222 571.902,61.355 571.902,59.055C571.902,56.755 573.79,54.888 576.115,54.888L584.667,54.888C586.992,54.888 588.88,56.755 588.88,59.055C588.88,61.355 586.992,63.222 584.667,63.222L576.115,63.222ZM601.77,63.222C599.445,63.222 597.557,61.355 597.557,59.055C597.557,56.755 599.445,54.888 601.77,54.888L610.321,54.888C612.646,54.888 614.534,56.755 614.534,59.055C614.534,61.355 612.646,63.222 610.321,63.222L601.77,63.222ZM627.424,63.222C625.099,63.222 623.211,61.355 623.211,59.055C623.211,56.755 625.099,54.888 627.424,54.888L635.975,54.888C638.301,54.888 640.188,56.755 640.188,59.055C640.188,61.355 638.301,63.222 635.975,63.222L627.424,63.222ZM653.078,63.222C650.753,63.222 648.865,61.355 648.865,59.055C648.865,56.755 650.753,54.888 653.078,54.888L661.629,54.888C663.954,54.888 665.842,56.755 665.842,59.055C665.842,61.355 663.954,63.222 661.629,63.222L653.078,63.222ZM678.732,63.222C676.406,63.222 674.518,61.355 674.518,59.055C674.518,56.755 676.406,54.888 678.732,54.888L687.283,54.888C689.608,54.888 691.496,56.755 691.496,59.055C691.496,61.355 689.608,63.222 687.283,63.222L678.732,63.222ZM704.386,63.222C702.06,63.222 700.173,61.355 700.173,59.055C700.173,56.755 702.06,54.888 704.386,54.888L708.661,54.888C710.987,54.888 712.874,56.755 712.874,59.055C712.874,61.355 710.987,63.222 708.661,63.222L704.386,63.222Z" style="fill:rgb(35,31,32);"/>
    </g>
</svg>
