<?xml version="1.0" encoding="UTF-8" standalone="no"?>
<!DOCTYPE svg PUBLIC "-//W3C//DTD SVG 1.1//EN" "http://www.w3.org/Graphics/SVG/1.1/DTD/svg11.dtd">
<svg width="100%" height="100%" viewBox="0 0 237 237" version="1.1" xmlns="http://www.w3.org/2000/svg" xmlns:xlink="http://www.w3.org/1999/xlink" xml:space="preserve" xmlns:serif="http://www.serif.com/" style="fill-rule:evenodd;clip-rule:evenodd;stroke-linejoin:round;stroke-miterlimit:2;">
    <g transform="matrix(4.17649,0,0,4.17649,0,-0.423729)">
        <path d="M26.412,0.133L30.014,0.133L30.147,0.267L31.481,0.267L31.615,0.4L32.548,0.4L32.682,0.534L33.215,0.534L33.349,0.667L34.016,0.667L34.149,0.8L34.549,0.8L34.683,0.934L35.083,0.934L35.216,1.067L35.616,1.067L35.75,1.201L36.15,1.201L36.283,1.334L36.55,1.334L36.684,1.467L36.95,1.467L37.084,1.601L37.351,1.601L37.484,1.734L37.751,1.734L37.884,1.868L38.151,1.868L38.284,2.001L38.418,2.001L38.551,2.134L38.818,2.134L38.951,2.268L39.218,2.268L39.352,2.401L39.485,2.401L39.618,2.535L39.752,2.535L39.885,2.668L40.019,2.668L40.152,2.801L40.285,2.801L40.419,2.935L40.686,2.935L40.819,3.068L40.952,3.068L41.219,3.335L41.352,3.335L41.486,3.468L41.619,3.468L41.753,3.602L41.886,3.602L42.019,3.735L42.153,3.735L42.286,3.868L42.42,3.868L42.686,4.135L42.82,4.135L42.953,4.269L43.087,4.269L43.353,4.535L43.487,4.535L43.754,4.802L43.887,4.802L44.02,4.936L44.154,4.936L44.554,5.336L44.687,5.336L44.954,5.603L45.088,5.603L45.488,6.003L45.621,6.003L46.155,6.536L46.288,6.536L46.955,7.203L47.088,7.203L49.49,9.604L49.49,9.738L50.29,10.538L50.29,10.672L50.69,11.072L50.69,11.205L51.09,11.605L51.09,11.739L51.491,12.139L51.491,12.272L51.757,12.539L51.757,12.673L52.024,12.939L52.024,13.073L52.291,13.34L52.291,13.473L52.558,13.74L52.558,13.873L52.691,14.006L52.691,14.14L52.824,14.273L52.824,14.407L52.958,14.54L52.958,14.673L53.225,14.94L53.225,15.074L53.358,15.207L53.358,15.34L53.491,15.474L53.491,15.607L53.625,15.741L53.625,15.874L53.758,16.007L53.758,16.141L53.892,16.274L53.892,16.408L54.025,16.541L54.025,16.808L54.158,16.941L54.158,17.075L54.292,17.208L54.292,17.341L54.425,17.475L54.425,17.742L54.559,17.875L54.559,18.008L54.692,18.142L54.692,18.409L54.825,18.542L54.825,18.675L54.959,18.809L54.959,19.075L55.092,19.209L55.092,19.476L55.226,19.609L55.226,19.876L55.359,20.009L55.359,20.409L55.492,20.543L55.492,20.81L55.626,20.943L55.626,21.343L55.759,21.477L55.759,22.01L55.893,22.144L55.893,22.544L56.026,22.677L56.026,23.211L56.159,23.344L56.159,24.011L56.293,24.145L56.293,25.078L56.426,25.212L56.426,26.546L56.56,26.679L56.56,30.014L56.426,30.147L56.426,31.481L56.293,31.615L56.293,32.548L56.159,32.682L56.159,33.349L56.026,33.482L56.026,34.016L55.893,34.149L55.893,34.549L55.759,34.683L55.759,35.216L55.626,35.35L55.626,35.75L55.492,35.883L55.492,36.15L55.359,36.283L55.359,36.684L55.226,36.817L55.226,37.084L55.092,37.217L55.092,37.484L54.959,37.617L54.959,37.884L54.825,38.018L54.825,38.151L54.692,38.284L54.692,38.551L54.559,38.685L54.559,38.818L54.425,38.951L54.425,39.218L54.292,39.352L54.292,39.485L54.158,39.618L54.158,39.752L54.025,39.885L54.025,40.152L53.892,40.285L53.892,40.419L53.758,40.552L53.758,40.686L53.625,40.819L53.625,40.952L53.491,41.086L53.491,41.219L53.358,41.352L53.358,41.486L53.225,41.619L53.225,41.753L53.091,41.886L53.091,42.019L52.824,42.286L52.824,42.42L52.691,42.553L52.691,42.686L52.424,42.953L52.424,43.087L52.291,43.22L52.291,43.353L52.024,43.62L52.024,43.754L51.757,44.02L51.757,44.154L51.491,44.421L51.491,44.554L51.09,44.954L51.09,45.088L50.824,45.354L50.824,45.488L50.29,46.021L50.29,46.155L49.356,47.088L49.356,47.222L47.222,49.356L47.088,49.356L46.288,50.157L46.155,50.157L45.755,50.557L45.621,50.557L45.088,51.09L44.954,51.09L44.554,51.491L44.421,51.491L44.154,51.757L44.02,51.757L43.887,51.891L43.754,51.891L43.487,52.157L43.353,52.157L42.953,52.558L42.82,52.558L42.686,52.691L42.553,52.691L42.42,52.824L42.286,52.824L42.153,52.958L42.019,52.958L41.886,53.091L41.753,53.091L41.619,53.225L41.486,53.225L41.352,53.358L41.219,53.358L40.952,53.625L40.819,53.625L40.686,53.758L40.419,53.758L40.285,53.892L40.152,53.892L40.019,54.025L39.885,54.025L39.752,54.158L39.618,54.158L39.485,54.292L39.352,54.292L39.218,54.425L38.951,54.425L38.818,54.559L38.551,54.559L38.418,54.692L38.284,54.692L38.151,54.825L37.884,54.825L37.751,54.959L37.484,54.959L37.351,55.092L37.084,55.092L36.95,55.226L36.684,55.226L36.55,55.359L36.283,55.359L36.15,55.492L35.75,55.492L35.616,55.626L35.216,55.626L35.083,55.759L34.683,55.759L34.549,55.893L34.149,55.893L34.016,56.026L33.349,56.026L33.215,56.159L32.682,56.159L32.548,56.293L31.615,56.293L31.481,56.426L30.147,56.426L30.014,56.56L26.412,56.56L26.279,56.426L24.945,56.426L24.811,56.293L23.878,56.293L23.744,56.159L23.211,56.159L23.077,56.026L22.41,56.026L22.277,55.893L21.877,55.893L21.743,55.759L21.343,55.759L21.21,55.626L20.81,55.626L20.676,55.492L20.276,55.492L20.143,55.359L19.876,55.359L19.742,55.226L19.476,55.226L19.342,55.092L19.075,55.092L18.942,54.959L18.675,54.959L18.542,54.825L18.275,54.825L18.142,54.692L18.008,54.692L17.875,54.559L17.608,54.559L17.475,54.425L17.208,54.425L17.075,54.292L16.941,54.292L16.808,54.158L16.674,54.158L16.541,54.025L16.408,54.025L16.274,53.892L16.141,53.892L16.007,53.758L15.741,53.758L15.607,53.625L15.474,53.625L15.207,53.358L15.074,53.358L14.94,53.225L14.807,53.225L14.673,53.091L14.54,53.091L14.407,52.958L14.273,52.958L14.14,52.824L14.006,52.824L13.74,52.558L13.606,52.558L13.473,52.424L13.34,52.424L13.073,52.157L12.939,52.157L12.673,51.891L12.539,51.891L12.406,51.757L12.272,51.757L11.872,51.357L11.739,51.357L11.472,51.09L11.339,51.09L10.938,50.69L10.805,50.69L10.271,50.157L10.138,50.157L9.471,49.49L9.338,49.49L6.937,47.088L6.937,46.955L6.136,46.155L6.136,46.021L5.736,45.621L5.736,45.488L5.336,45.088L5.336,44.954L4.936,44.554L4.936,44.421L4.669,44.154L4.669,44.02L4.402,43.754L4.402,43.62L4.135,43.353L4.135,43.22L4.002,43.087L4.002,42.953L3.735,42.686L3.735,42.553L3.602,42.42L3.602,42.286L3.468,42.153L3.468,42.019L3.201,41.753L3.201,41.619L3.068,41.486L3.068,41.352L2.935,41.219L2.935,41.086L2.801,40.952L2.801,40.819L2.668,40.686L2.668,40.552L2.535,40.419L2.535,40.285L2.401,40.152L2.401,39.885L2.268,39.752L2.268,39.618L2.134,39.485L2.134,39.352L2.001,39.218L2.001,38.951L1.868,38.818L1.868,38.685L1.734,38.551L1.734,38.284L1.601,38.151L1.601,38.018L1.467,37.884L1.467,37.617L1.334,37.484L1.334,37.217L1.201,37.084L1.201,36.817L1.067,36.684L1.067,36.283L0.934,36.15L0.934,35.883L0.8,35.75L0.8,35.35L0.667,35.216L0.667,34.816L0.534,34.683L0.534,34.149L0.4,34.016L0.4,33.482L0.267,33.349L0.267,32.682L0.133,32.548L0.133,31.748L0,31.615L0,25.078L0.133,24.945L0.133,24.145L0.267,24.011L0.267,23.344L0.4,23.211L0.4,22.677L0.534,22.544L0.534,22.01L0.667,21.877L0.667,21.477L0.8,21.343L0.8,20.943L0.934,20.81L0.934,20.543L1.067,20.409L1.067,20.009L1.201,19.876L1.201,19.609L1.334,19.476L1.334,19.209L1.467,19.075L1.467,18.809L1.601,18.675L1.601,18.542L1.734,18.409L1.734,18.142L1.868,18.008L1.868,17.875L2.001,17.742L2.001,17.475L2.134,17.341L2.134,17.208L2.268,17.075L2.268,16.941L2.401,16.808L2.401,16.541L2.535,16.408L2.535,16.274L2.668,16.141L2.668,16.007L2.801,15.874L2.801,15.741L2.935,15.607L2.935,15.474L3.068,15.34L3.068,15.207L3.201,15.074L3.201,14.94L3.468,14.673L3.468,14.54L3.602,14.407L3.602,14.273L3.735,14.14L3.735,14.006L4.002,13.74L4.002,13.606L4.135,13.473L4.135,13.34L4.402,13.073L4.402,12.939L4.669,12.673L4.669,12.539L4.936,12.272L4.936,12.139L5.336,11.739L5.336,11.605L5.736,11.205L5.736,11.072L6.136,10.672L6.136,10.538L6.937,9.738L6.937,9.604L9.338,7.203L9.471,7.203L10.138,6.536L10.271,6.536L10.805,6.003L10.938,6.003L11.339,5.603L11.472,5.603L11.739,5.336L11.872,5.336L12.272,4.936L12.406,4.936L12.539,4.802L12.673,4.802L12.939,4.535L13.073,4.535L13.34,4.269L13.473,4.269L13.606,4.135L13.74,4.135L14.006,3.868L14.14,3.868L14.273,3.735L14.407,3.735L14.54,3.602L14.673,3.602L14.807,3.468L14.94,3.468L15.074,3.335L15.207,3.335L15.474,3.068L15.607,3.068L15.741,2.935L16.007,2.935L16.141,2.801L16.274,2.801L16.408,2.668L16.541,2.668L16.674,2.535L16.808,2.535L16.941,2.401L17.075,2.401L17.208,2.268L17.475,2.268L17.608,2.134L17.875,2.134L18.008,2.001L18.142,2.001L18.275,1.868L18.542,1.868L18.675,1.734L18.942,1.734L19.075,1.601L19.342,1.601L19.476,1.467L19.742,1.467L19.876,1.334L20.143,1.334L20.276,1.201L20.676,1.201L20.81,1.067L21.21,1.067L21.343,0.934L21.743,0.934L21.877,0.8L22.277,0.8L22.41,0.667L23.077,0.667L23.211,0.534L23.744,0.534L23.878,0.4L24.811,0.4L24.945,0.267L26.279,0.267L26.412,0.133ZM23.878,9.471L24.011,9.604L24.145,9.471L24.011,9.338L24.011,9.204L23.744,8.937L23.744,8.804L23.478,8.537L23.478,8.404L23.077,8.004L23.077,7.87L22.41,7.203L22.41,7.07L21.743,6.403L21.743,6.27L21.21,5.736L21.076,5.736L20.543,5.202L20.409,5.202L19.876,4.669L19.742,4.669L19.476,4.402L19.342,4.402L19.075,4.135L18.942,4.135L18.675,3.868L18.542,3.868L18.409,3.735L18.275,3.735L18.142,3.602L18.142,3.468L17.875,3.201L17.742,3.335L17.475,3.335L17.341,3.468L17.208,3.468L17.075,3.602L16.941,3.602L16.808,3.735L16.674,3.735L16.541,3.868L16.408,3.868L16.274,4.002L16.141,4.002L16.007,4.135L15.874,4.135L15.741,4.269L15.607,4.269L15.474,4.402L15.34,4.402L15.207,4.535L15.074,4.535L14.94,4.669L14.807,4.669L14.54,4.936L14.407,4.936L14.273,5.069L14.14,5.069L13.873,5.336L13.74,5.336L13.606,5.469L13.473,5.469L13.206,5.736L13.073,5.736L12.806,6.003L12.673,6.003L12.272,6.403L12.139,6.403L11.739,6.803L11.605,6.803L11.205,7.203L11.072,7.203L10.271,8.004L10.138,8.004L7.604,10.538L7.604,10.672L6.937,11.339L6.937,11.472L6.403,12.006L6.403,12.139L6.003,12.539L6.003,12.673L5.736,12.939L5.736,13.073L5.469,13.34L5.469,13.473L5.202,13.74L5.202,13.873L4.936,14.14L4.936,14.273L4.802,14.407L4.802,14.54L4.535,14.807L4.535,14.94L4.402,15.074L4.402,15.207L4.135,15.474L4.135,15.607L4.002,15.741L4.002,15.874L3.868,16.007L3.868,16.141L3.735,16.274L3.735,16.408L3.602,16.541L3.602,16.674L3.468,16.808L3.468,16.941L3.335,17.075L3.335,17.341L3.201,17.475L3.201,17.608L3.068,17.742L3.068,17.875L2.935,18.008L2.935,18.275L2.801,18.409L2.801,18.542L2.668,18.675L2.668,18.942L2.535,19.075L2.535,19.342L2.401,19.476L2.401,19.742L2.268,19.876L2.268,20.143L2.134,20.276L2.134,20.543L2.001,20.676L2.001,20.943L1.868,21.076L1.868,21.477L1.734,21.61L1.734,22.01L1.601,22.144L1.601,22.544L1.467,22.677L1.467,23.211L1.334,23.344L1.334,24.011L1.201,24.145L1.201,24.945L1.067,25.078L1.067,26.145L0.934,26.279L0.934,30.414L1.067,30.547L1.067,31.615L1.201,31.748L1.201,32.548L1.334,32.682L1.334,33.349L1.467,33.482L1.467,34.016L1.601,34.149L1.601,34.549L1.734,34.683L1.734,35.083L1.868,35.216L1.868,35.616L2.001,35.75L2.001,36.017L2.134,36.15L2.134,36.417L2.268,36.55L2.268,36.817L2.401,36.95L2.401,37.217L2.535,37.351L2.535,37.617L2.668,37.751L2.668,38.018L2.801,38.151L2.801,38.284L2.935,38.418L2.935,38.685L3.068,38.818L3.068,38.951L3.201,39.085L3.201,39.218L3.335,39.352L3.335,39.618L3.468,39.752L3.468,39.885L3.602,40.019L3.602,40.152L3.735,40.285L3.735,40.419L3.868,40.552L3.868,40.686L4.002,40.819L4.002,40.952L4.135,41.086L4.135,41.219L4.402,41.486L4.402,41.619L4.535,41.753L4.535,41.886L4.802,42.153L4.802,42.286L4.936,42.42L4.936,42.553L5.202,42.82L5.202,42.953L5.469,43.22L5.469,43.353L5.736,43.62L5.736,43.754L6.003,44.02L6.003,44.154L6.403,44.554L6.403,44.687L6.937,45.221L6.937,45.354L7.604,46.021L7.604,46.155L10.138,48.689L10.271,48.689L11.072,49.49L11.205,49.49L11.605,49.89L11.739,49.89L12.139,50.29L12.272,50.29L12.673,50.69L12.806,50.69L13.073,50.957L13.206,50.957L13.473,51.224L13.606,51.224L13.74,51.357L13.873,51.357L14.14,51.624L14.273,51.624L14.407,51.757L14.54,51.757L14.807,52.024L14.94,52.024L15.074,52.157L15.207,52.157L15.34,52.291L15.474,52.291L15.607,52.424L15.741,52.424L15.874,52.558L16.007,52.558L16.141,52.691L16.274,52.691L16.408,52.824L16.541,52.824L16.674,52.958L16.808,52.958L16.941,53.091L17.075,53.091L17.208,53.225L17.341,53.225L17.475,53.358L17.742,53.358L17.875,53.491L18.008,53.491L18.142,53.625L18.409,53.625L18.542,53.758L18.675,53.758L18.809,53.892L19.075,53.892L19.209,54.025L19.476,54.025L19.609,54.158L19.876,54.158L20.009,54.292L20.276,54.292L20.409,54.425L20.81,54.425L20.943,54.559L21.21,54.559L21.343,54.692L21.877,54.692L22.01,54.825L22.41,54.825L22.544,54.959L23.077,54.959L23.211,55.092L23.744,55.092L23.878,55.226L24.678,55.226L24.811,55.359L26.012,55.359L26.145,55.492L30.281,55.492L30.414,55.359L31.615,55.359L31.748,55.226L32.548,55.226L32.682,55.092L33.215,55.092L33.349,54.959L33.882,54.959L34.016,54.825L34.416,54.825L34.549,54.692L35.083,54.692L35.216,54.559L35.483,54.559L35.616,54.425L36.017,54.425L36.15,54.292L36.417,54.292L36.55,54.158L36.817,54.158L36.95,54.025L37.217,54.025L37.351,53.892L37.617,53.892L37.751,53.758L37.884,53.758L38.018,53.625L38.284,53.625L38.418,53.491L38.551,53.491L38.685,53.358L38.951,53.358L39.085,53.225L39.218,53.225L39.352,53.091L39.485,53.091L39.618,52.958L39.752,52.958L39.885,52.824L40.019,52.824L40.152,52.691L40.285,52.691L40.419,52.558L40.552,52.558L40.686,52.424L40.819,52.424L40.952,52.291L41.086,52.291L41.219,52.157L41.352,52.157L41.486,52.024L41.619,52.024L41.886,51.757L42.019,51.757L42.153,51.624L42.286,51.624L42.686,51.224L42.82,51.224L43.087,50.957L43.353,50.957L43.62,50.69L43.754,50.69L44.02,50.423L44.02,49.89L43.887,49.756L43.887,49.49L43.754,49.356L43.754,48.956L43.62,48.823L43.62,48.422L43.487,48.289L43.487,47.755L43.353,47.622L43.353,47.222L43.22,47.088L43.22,46.421L43.087,46.288L43.087,45.488L42.953,45.354L42.953,44.687L42.82,44.554L42.82,43.887L42.686,43.754L42.686,42.953L42.553,42.82L42.553,42.686L42.42,42.553L41.886,42.553L41.753,42.42L40.819,42.42L40.686,42.553L39.218,42.553L39.085,42.686L38.151,42.686L38.018,42.553L36.55,42.553L36.417,42.686L36.417,44.421L36.283,44.554L36.283,45.354L36.15,45.488L36.15,46.155L36.017,46.288L36.017,47.222L35.883,47.355L35.883,48.156L35.75,48.289L35.75,49.356L35.616,49.49L35.616,50.157L35.483,50.29L35.483,51.09L35.35,51.224L35.35,51.891L35.216,52.024L35.216,52.157L35.083,52.291L35.083,52.424L34.549,52.958L34.416,52.958L34.283,53.091L34.149,53.091L34.016,53.225L33.749,53.225L33.616,53.358L32.015,53.358L31.881,53.225L31.481,53.225L31.348,53.091L31.081,53.091L30.948,52.958L30.814,52.958L30.147,52.291L30.147,52.157L30.014,52.024L30.014,51.757L29.881,51.624L29.881,50.957L30.014,50.824L30.014,50.69L30.147,50.557L30.147,50.423L30.547,50.023L30.681,50.023L30.814,49.89L30.948,49.89L31.081,49.756L31.214,49.756L31.348,49.623L32.548,49.623L32.682,49.49L32.548,49.356L32.548,48.956L32.415,48.823L32.415,48.422L32.282,48.289L32.282,47.889L32.148,47.755L32.148,47.355L32.015,47.222L32.015,46.955L31.881,46.822L31.881,46.421L31.748,46.288L31.748,45.888L31.615,45.755L31.615,45.354L31.481,45.221L31.481,44.687L31.348,44.554L31.348,43.887L31.214,43.754L31.214,43.22L31.081,43.087L31.081,42.686L30.948,42.553L29.347,42.553L29.214,42.42L28.146,42.42L28.013,42.286L27.346,42.286L27.213,42.153L26.546,42.153L26.412,42.019L26.145,42.019L26.012,41.886L25.745,41.886L25.612,41.753L25.345,41.753L25.212,41.619L24.811,41.619L24.678,41.486L24.411,41.486L24.278,41.352L24.145,41.352L24.011,41.219L23.611,41.219L23.478,41.086L23.344,41.086L23.211,40.952L22.944,40.952L22.677,40.686L22.41,40.686L22.277,40.552L22.144,40.552L21.877,40.285L21.743,40.285L21.343,39.885L21.21,39.885L20.409,39.085L19.876,39.085L19.742,39.218L19.342,39.218L19.209,39.352L18.809,39.352L18.675,39.485L18.409,39.485L18.275,39.618L18.008,39.618L17.875,39.752L17.608,39.752L17.475,39.885L17.208,39.885L17.075,40.019L16.808,40.019L16.674,40.152L16.408,40.152L16.274,40.285L16.007,40.285L15.874,40.419L15.474,40.419L15.34,40.552L15.074,40.552L14.94,40.686L14.54,40.686L14.407,40.819L14.006,40.819L13.873,40.952L13.473,40.952L13.34,41.086L11.339,41.086L11.205,40.952L10.538,40.952L10.405,40.819L10.271,40.819L10.138,40.686L9.871,40.686L9.738,40.552L9.471,40.552L9.338,40.419L9.204,40.419L8.937,40.152L8.804,40.152L8.537,39.885L8.537,39.752L8.404,39.618L8.404,39.485L8.27,39.352L8.27,39.218L8.137,39.085L8.137,37.617L8.27,37.484L8.27,37.217L8.404,37.084L8.404,36.95L8.671,36.684L8.671,36.55L9.071,36.15L9.071,36.017L9.471,35.616L9.604,35.616L10.005,35.216L10.138,35.216L10.271,35.083L10.405,35.083L10.672,34.816L11.072,34.816L11.205,34.683L11.472,34.683L11.605,34.549L11.739,34.549L11.872,34.416L12.272,34.416L12.406,34.283L12.939,34.283L13.073,34.149L15.34,34.149L15.474,34.283L16.674,34.283L16.808,34.416L17.608,34.416L17.742,34.283L17.742,31.881L17.608,31.748L17.608,28.547L17.742,28.413L17.742,26.412L17.475,26.145L17.341,26.145L17.208,26.012L16.141,26.012L16.007,25.879L15.474,25.879L15.34,25.745L15.074,25.745L14.94,25.612L14.673,25.612L14.54,25.478L14.273,25.478L14.14,25.345L14.006,25.345L13.74,25.078L13.606,25.078L13.206,24.678L13.073,24.678L12.806,24.411L12.673,24.411L12.272,24.011L12.272,23.878L11.872,23.478L11.872,23.344L11.739,23.211L11.739,23.077L11.605,22.944L11.605,22.811L11.472,22.677L11.472,22.277L11.339,22.144L11.339,21.743L11.205,21.61L11.205,21.343L11.339,21.21L11.339,20.81L11.472,20.676L11.472,20.543L11.605,20.409L11.605,20.143L11.739,20.009L11.739,19.876L11.872,19.742L11.872,19.609L12.673,18.809L12.673,18.675L12.806,18.542L12.939,18.542L13.34,18.142L13.473,18.142L13.606,18.008L13.74,18.008L13.873,17.875L14.006,17.875L14.14,17.742L14.273,17.742L14.407,17.608L14.54,17.608L14.673,17.475L14.94,17.475L15.074,17.341L15.34,17.341L15.474,17.208L16.007,17.208L16.141,17.075L17.208,17.075L17.341,16.941L17.875,16.941L18.008,17.075L18.275,17.075L18.409,16.941L18.409,16.674L18.542,16.541L18.542,15.741L18.675,15.607L18.675,14.94L18.809,14.807L18.809,14.14L18.942,14.006L18.942,13.606L19.075,13.473L19.075,13.34L19.209,13.206L19.209,13.073L19.342,12.939L19.342,12.806L19.609,12.539L19.742,12.539L19.876,12.406L20.009,12.406L20.143,12.272L20.409,12.272L20.543,12.139L21.076,12.139L21.21,12.006L22.277,12.006L22.41,11.872L24.278,11.872L24.411,11.739L22.41,9.738L22.277,9.738L21.877,9.338L21.743,9.338L21.61,9.204L21.477,9.204L21.21,8.937L21.076,8.937L20.943,8.804L20.81,8.804L20.676,8.671L20.543,8.671L20.409,8.537L20.276,8.537L20.143,8.404L20.009,8.404L19.876,8.27L19.609,8.27L19.209,7.87L19.209,7.47L19.476,7.203L20.009,7.203L20.143,7.337L20.409,7.337L20.543,7.47L20.81,7.47L20.943,7.604L21.076,7.604L21.21,7.737L21.343,7.737L21.61,8.004L21.743,8.004L22.01,8.27L22.144,8.27L22.41,8.537L22.544,8.537L22.811,8.804L22.944,8.804L23.344,9.204L23.478,9.204L23.744,9.471L23.878,9.471ZM32.148,42.553L31.881,42.553L31.748,42.686L31.881,42.82L31.881,43.087L32.015,43.22L32.015,43.62L32.148,43.754L32.148,44.421L32.282,44.554L32.282,44.954L32.415,45.088L32.415,45.354L32.548,45.488L32.548,45.888L32.682,46.021L32.682,46.421L32.815,46.555L32.815,46.955L32.949,47.088L32.949,47.355L33.082,47.489L33.082,47.889L33.215,48.022L33.215,48.422L33.349,48.556L33.349,48.823L33.482,48.956L33.482,49.223L33.616,49.356L33.616,49.623L33.749,49.756L33.749,50.557L33.616,50.69L33.082,50.69L32.949,50.557L32.815,50.557L32.682,50.423L31.748,50.423L31.615,50.557L31.348,50.557L30.814,51.09L30.814,51.624L31.481,52.291L31.748,52.291L31.881,52.424L33.616,52.424L33.749,52.291L33.882,52.291L34.416,51.757L34.416,51.357L34.549,51.224L34.549,50.29L34.683,50.157L34.683,49.49L34.816,49.356L34.816,48.422L34.95,48.289L34.95,47.489L35.083,47.355L35.083,46.288L35.216,46.155L35.216,45.354L35.35,45.221L35.35,44.554L35.483,44.421L35.483,42.953L35.616,42.82L35.616,42.686L35.483,42.553L35.35,42.553L35.216,42.686L35.083,42.686L34.95,42.553L32.415,42.553L32.282,42.42L32.148,42.553ZM16.408,17.875L15.874,17.875L15.741,18.008L15.34,18.008L15.207,18.142L14.94,18.142L14.807,18.275L14.673,18.275L14.54,18.409L14.273,18.409L14.006,18.675L13.873,18.675L13.606,18.942L13.473,18.942L12.539,19.876L12.539,20.009L12.406,20.143L12.406,20.276L12.272,20.409L12.272,20.543L12.139,20.676L12.139,20.81L12.006,20.943L12.006,22.144L12.139,22.277L12.139,22.41L12.272,22.544L12.272,22.677L12.406,22.811L12.406,22.944L12.539,23.077L12.539,23.211L13.473,24.145L13.606,24.145L13.873,24.411L14.006,24.411L14.14,24.545L14.273,24.545L14.407,24.678L14.54,24.678L14.673,24.811L14.94,24.811L15.074,24.945L15.207,24.945L15.34,25.078L15.741,25.078L15.874,25.212L16.274,25.212L16.408,25.345L18.809,25.345L18.942,25.212L19.476,25.212L19.609,25.078L19.876,25.078L20.009,24.945L20.276,24.945L20.409,24.811L20.543,24.811L20.676,24.678L20.943,24.678L21.076,24.545L21.21,24.545L21.343,24.411L21.477,24.411L21.877,24.011L22.01,24.011L22.677,23.344L22.677,23.211L22.944,22.944L22.944,22.811L23.077,22.677L23.077,22.277L23.211,22.144L23.211,20.943L23.077,20.81L23.077,20.543L22.944,20.409L22.944,20.276L22.811,20.143L22.811,20.009L22.677,19.876L22.677,19.742L22.01,19.075L21.877,19.075L21.61,18.809L21.477,18.809L21.21,18.542L21.076,18.542L20.943,18.409L20.676,18.409L20.543,18.275L20.409,18.275L20.276,18.142L20.009,18.142L19.876,18.008L19.476,18.008L19.342,17.875L18.942,17.875L18.809,17.742L16.541,17.742L16.408,17.875ZM16.007,18.409L16.808,18.409L16.941,18.542L17.475,18.542L17.608,18.675L17.875,18.675L18.142,18.942L18.275,18.942L19.075,19.742L19.075,20.009L19.209,20.143L19.209,20.409L19.342,20.543L19.342,21.21L19.209,21.343L19.209,21.61L19.075,21.743L19.075,21.877L18.942,22.01L18.942,22.144L18.409,22.677L18.275,22.677L18.008,22.944L17.875,22.944L17.742,23.077L17.475,23.077L17.341,23.211L16.941,23.211L16.808,23.344L16.007,23.344L15.874,23.211L15.34,23.211L15.207,23.077L15.074,23.077L14.94,22.944L14.807,22.944L14.54,22.677L14.407,22.677L13.873,22.144L13.873,22.01L13.74,21.877L13.74,21.743L13.606,21.61L13.606,21.343L13.473,21.21L13.473,20.543L13.606,20.409L13.606,20.143L13.74,20.009L13.74,19.876L13.873,19.742L13.873,19.609L14.54,18.942L14.673,18.942L14.807,18.809L14.94,18.809L15.074,18.675L15.34,18.675L15.474,18.542L15.874,18.542L16.007,18.409ZM14.981,19.609L14.94,19.609L14.898,19.651C14.656,19.788 14.5,20.005 14.5,20.25C14.5,20.664 14.948,21 15.5,21C16.052,21 16.5,20.664 16.5,20.25C16.5,19.836 16.052,19.5 15.5,19.5C15.31,19.5 15.132,19.54 14.981,19.609ZM49.49,42.286L49.49,42.42L49.356,42.553L49.356,42.953L49.223,43.087L49.223,43.754L49.089,43.887L49.089,44.421L48.956,44.554L48.956,45.354L48.823,45.488L48.823,45.755L48.956,45.888L49.49,45.354L49.49,45.221L50.023,44.687L50.023,44.554L50.423,44.154L50.423,44.02L50.69,43.754L50.69,43.62L50.957,43.353L50.957,43.22L51.224,42.953L51.224,42.82L51.491,42.553L51.491,42.42L51.624,42.286L51.491,42.153L51.357,42.153L51.224,42.286L50.023,42.286L49.89,42.153L49.623,42.153L49.49,42.286ZM23.211,27.346L23.211,27.613L23.077,27.746L23.077,27.88L22.944,28.013L22.944,28.28L22.811,28.413L22.811,28.947L22.677,29.08L22.677,29.881L22.544,30.014L22.544,31.214L22.677,31.348L22.677,32.415L22.811,32.548L22.811,33.349L22.944,33.482L22.944,33.749L23.077,33.882L23.077,34.283L23.211,34.416L23.211,34.549L23.344,34.683L23.344,35.616L23.077,35.883L22.811,35.883L22.677,36.017L21.076,36.017L20.943,35.883L20.143,35.883L20.009,35.75L19.476,35.75L19.342,35.616L18.809,35.616L18.675,35.483L18.008,35.483L17.875,35.35L17.208,35.35L17.075,35.216L16.007,35.216L15.874,35.083L15.207,35.083L15.074,34.95L13.473,34.95L13.34,35.083L12.673,35.083L12.539,35.216L12.272,35.216L12.139,35.35L11.872,35.35L11.739,35.483L11.339,35.483L11.205,35.616L11.072,35.616L10.938,35.75L10.805,35.75L10.672,35.883L10.538,35.883L10.271,36.15L10.138,36.15L9.604,36.684L9.604,36.817L9.204,37.217L9.204,37.484L9.071,37.617L9.071,38.151L8.937,38.284L8.937,38.685L9.071,38.818L9.071,39.218L9.338,39.485L9.471,39.485L9.738,39.752L9.871,39.752L10.005,39.885L10.271,39.885L10.405,40.019L10.805,40.019L10.938,40.152L11.605,40.152L11.739,40.285L12.272,40.285L12.406,40.152L13.473,40.152L13.606,40.019L14.006,40.019L14.14,39.885L14.54,39.885L14.673,39.752L15.074,39.752L15.207,39.618L15.607,39.618L15.741,39.485L15.874,39.485L16.007,39.352L16.408,39.352L16.541,39.218L16.808,39.218L16.941,39.085L17.208,39.085L17.341,38.951L17.475,38.951L17.608,38.818L18.008,38.818L18.142,38.685L18.542,38.685L18.675,38.551L18.809,38.551L18.942,38.418L19.342,38.418L19.476,38.284L20.276,38.284L20.409,38.151L21.076,38.151L21.21,38.018L21.343,38.018L21.477,38.151L28.146,38.151L28.28,38.284L29.214,38.284L29.347,38.418L29.881,38.418L30.014,38.551L30.414,38.551L30.547,38.685L31.081,38.685L31.214,38.818L31.881,38.818L32.015,38.951L32.548,38.951L32.682,39.085L32.815,39.085L32.949,39.218L33.082,39.218L33.215,39.352L33.482,39.352L33.482,39.618L32.949,39.618L32.815,39.752L31.748,39.752L31.615,39.618L30.681,39.618L30.547,39.485L30.014,39.485L29.881,39.352L29.347,39.352L29.214,39.218L28.28,39.218L28.146,39.085L24.411,39.085L24.278,38.951L21.61,38.951L21.477,39.085L21.877,39.485L22.01,39.485L22.277,39.752L22.41,39.752L22.544,39.885L22.677,39.885L22.811,40.019L23.077,40.019L23.344,40.285L23.611,40.285L23.744,40.419L24.011,40.419L24.145,40.552L24.411,40.552L24.545,40.686L24.678,40.686L24.811,40.819L25.212,40.819L25.345,40.952L25.612,40.952L25.745,41.086L26.145,41.086L26.279,41.219L26.812,41.219L26.946,41.352L27.613,41.352L27.746,41.486L28.947,41.486L29.08,41.619L32.282,41.619L32.415,41.486L32.949,41.486L33.082,41.352L33.482,41.352L33.616,41.219L33.749,41.219L33.882,41.086L34.149,41.086L34.283,40.952L34.416,40.952L34.683,40.686L34.816,40.686L35.083,40.419L35.216,40.419L35.483,40.152L35.616,40.152L35.75,40.019L35.75,39.885L35.883,39.752L35.883,39.352L35.616,39.085L35.616,38.951L35.35,38.685L35.216,38.685L34.683,38.151L34.549,38.151L34.283,37.884L34.149,37.884L34.016,37.751L33.882,37.751L33.616,37.484L33.482,37.484L33.215,37.217L32.949,37.217L32.815,37.084L32.682,37.084L32.415,36.817L32.282,36.817L32.148,36.684L32.015,36.684L31.748,36.417L31.615,36.417L31.348,36.15L31.214,36.15L30.814,35.75L30.681,35.75L30.147,35.216L30.014,35.216L27.88,33.082L27.88,32.949L26.679,31.748L26.679,31.615L26.412,31.348L26.412,31.214L25.879,30.681L25.879,30.547L25.612,30.281L25.612,30.147L25.345,29.881L25.345,29.747L25.078,29.48L25.078,29.347L24.545,28.813L24.545,28.68L24.411,28.547L24.411,28.413L24.145,28.146L24.145,28.013L24.011,27.88L24.011,27.746L23.744,27.479L23.744,27.346L23.478,27.079L23.211,27.346ZM26.012,1.334L24.811,1.334L24.678,1.467L23.878,1.467L23.744,1.601L23.211,1.601L23.077,1.734L22.544,1.734L22.41,1.868L22.01,1.868L21.877,2.001L21.343,2.001L21.21,2.134L20.943,2.134L20.81,2.268L20.409,2.268L20.276,2.401L20.009,2.401L19.876,2.535L19.609,2.535L19.476,2.668L19.209,2.668L19.075,2.801L19.342,3.068L19.609,3.068L19.742,3.201L19.876,3.201L20.009,3.335L20.276,3.335L20.409,3.468L20.543,3.468L20.676,3.602L20.943,3.602L21.076,3.735L21.21,3.735L21.343,3.868L21.477,3.868L21.743,4.135L21.877,4.135L22.811,5.069L22.811,5.202L23.211,5.603L23.211,5.736L23.611,6.136L23.611,6.27L23.878,6.536L23.878,6.67L24.145,6.937L24.145,7.07L24.545,7.47L24.545,7.604L24.678,7.737L24.678,7.87L24.945,8.137L24.945,8.27L25.212,8.537L25.212,8.671L25.345,8.804L25.345,8.937L25.478,9.071L25.478,9.204L25.612,9.338L25.612,9.471L25.745,9.604L26.012,9.338L26.012,7.07L25.879,6.937L25.879,6.27L25.745,6.136L25.745,5.736L25.612,5.603L25.612,5.336L25.478,5.202L25.478,5.069L25.345,4.936L25.345,4.535L25.212,4.402L25.212,4.269L25.612,3.868L25.879,3.868L26.412,4.402L26.412,4.669L26.546,4.802L26.546,4.936L26.679,5.069L26.679,5.336L26.812,5.469L26.812,6.003L26.946,6.136L26.946,6.67L27.079,6.803L27.079,8.137L27.213,8.27L27.213,9.604L27.346,9.738L27.346,10.538L27.213,10.672L27.213,11.339L27.079,11.472L27.213,11.605L30.681,11.605L30.814,11.472L38.418,11.472L38.551,11.605L40.419,11.605L40.552,11.739L42.019,11.739L42.153,11.872L43.353,11.872L43.487,12.006L44.687,12.006L44.821,12.139L45.755,12.139L45.888,12.272L46.822,12.272L46.955,12.406L47.622,12.406L47.755,12.539L48.689,12.539L48.823,12.673L49.49,12.673L49.623,12.806L50.157,12.806L50.29,12.939L50.423,12.939L50.557,12.806L50.423,12.673L50.423,12.539L50.023,12.139L50.023,12.006L49.49,11.472L49.49,11.339L48.823,10.672L48.823,10.538L46.288,8.004L46.155,8.004L45.354,7.203L45.221,7.203L44.821,6.803L44.687,6.803L44.287,6.403L44.154,6.403L43.754,6.003L43.62,6.003L43.353,5.736L43.22,5.736L42.953,5.469L42.82,5.469L42.686,5.336L42.553,5.336L42.286,5.069L42.153,5.069L42.019,4.936L41.886,4.936L41.619,4.669L41.486,4.669L41.352,4.535L41.219,4.535L41.086,4.402L40.952,4.402L40.819,4.269L40.686,4.269L40.552,4.135L40.419,4.135L40.285,4.002L40.152,4.002L40.019,3.868L39.885,3.868L39.752,3.735L39.618,3.735L39.485,3.602L39.352,3.602L39.218,3.468L39.085,3.468L38.951,3.335L38.685,3.335L38.551,3.201L38.418,3.201L38.284,3.068L38.018,3.068L37.884,2.935L37.751,2.935L37.617,2.801L37.351,2.801L37.217,2.668L36.95,2.668L36.817,2.535L36.55,2.535L36.417,2.401L36.15,2.401L36.017,2.268L35.616,2.268L35.483,2.134L35.216,2.134L35.083,2.001L34.549,2.001L34.416,1.868L34.016,1.868L33.882,1.734L33.349,1.734L33.215,1.601L32.682,1.601L32.548,1.467L31.748,1.467L31.615,1.334L30.414,1.334L30.281,1.201L26.145,1.201L26.012,1.334ZM28.813,12.539L27.079,12.539L26.946,12.673L24.811,12.673L24.678,12.806L22.01,12.806L21.877,12.939L20.943,12.939L20.81,13.073L20.543,13.073L20.409,13.206L20.276,13.206L19.876,13.606L19.876,13.873L19.742,14.006L19.742,14.54L19.609,14.673L19.609,15.207L19.476,15.34L19.476,16.007L19.342,16.141L19.342,16.674L19.209,16.808L19.209,17.075L19.342,17.208L19.609,17.208L19.742,17.341L20.143,17.341L20.276,17.475L20.409,17.475L20.543,17.608L20.81,17.608L20.943,17.742L21.076,17.742L21.21,17.875L21.343,17.875L21.477,18.008L21.61,18.008L21.743,18.142L21.877,18.142L22.277,18.542L22.41,18.542L23.077,19.209L23.077,19.342L23.344,19.609L23.344,19.742L23.478,19.876L23.478,20.009L23.611,20.143L23.611,20.276L23.744,20.409L23.744,20.676L23.878,20.81L23.878,22.277L23.744,22.41L23.744,22.677L23.611,22.811L23.611,23.077L23.344,23.344L23.344,23.478L22.944,23.878L22.944,24.011L22.544,24.411L22.41,24.411L22.01,24.811L21.877,24.811L21.61,25.078L21.477,25.078L21.343,25.212L21.21,25.212L21.076,25.345L20.943,25.345L20.81,25.478L20.543,25.478L20.409,25.612L20.143,25.612L20.009,25.745L19.742,25.745L19.609,25.879L19.075,25.879L18.942,26.012L18.809,26.012L18.675,26.145L18.675,26.812L18.542,26.946L18.542,32.148L18.675,32.282L18.675,34.549L18.809,34.683L18.942,34.683L19.075,34.816L19.609,34.816L19.742,34.95L20.409,34.95L20.543,35.083L21.477,35.083L21.61,35.216L22.41,35.216L22.544,35.083L22.544,34.95L22.41,34.816L22.41,34.683L22.277,34.549L22.277,34.149L22.144,34.016L22.144,33.749L22.01,33.616L22.01,33.215L21.877,33.082L21.877,32.015L21.743,31.881L21.743,29.747L21.877,29.614L21.877,28.813L22.01,28.68L22.01,28.28L22.144,28.146L22.144,27.88L22.277,27.746L22.277,27.479L22.41,27.346L22.41,27.213L22.677,26.946L22.677,26.812L22.811,26.679L22.811,26.546L23.344,26.012L24.011,26.012L24.145,26.145L24.145,26.279L24.278,26.412L24.278,26.546L24.411,26.679L24.411,26.812L24.545,26.946L24.545,27.079L24.811,27.346L24.811,27.479L25.078,27.746L25.078,27.88L25.212,28.013L25.212,28.146L25.478,28.413L25.478,28.547L25.879,28.947L25.879,29.08L26.145,29.347L26.145,29.48L26.412,29.747L26.412,29.881L26.679,30.147L26.679,30.281L27.213,30.814L27.213,30.948L27.88,31.615L27.88,31.748L29.08,32.949L29.08,33.082L30.547,34.549L30.681,34.549L31.214,35.083L31.348,35.083L31.615,35.35L31.748,35.35L32.148,35.75L32.282,35.75L32.548,36.017L32.682,36.017L32.815,36.15L32.949,36.15L33.082,36.283L33.215,36.283L33.349,36.417L33.482,36.417L33.616,36.55L33.749,36.55L33.882,36.684L34.016,36.684L34.416,37.084L34.549,37.084L34.683,37.217L34.816,37.217L35.083,37.484L35.216,37.484L35.616,37.884L35.75,37.884L36.417,38.551L36.417,38.685L36.55,38.818L36.55,38.951L36.684,39.085L36.684,40.152L36.55,40.285L36.55,40.419L36.15,40.819L36.017,40.819L35.616,41.219L35.483,41.219L35.216,41.486L35.35,41.619L39.885,41.619L40.019,41.486L42.153,41.486L42.286,41.619L42.42,41.619L42.553,41.486L42.553,41.352L42.42,41.219L42.42,39.752L42.553,39.618L42.553,38.818L42.686,38.685L42.686,38.284L42.82,38.151L43.087,38.151L43.087,38.951L43.22,39.085L43.22,41.352L43.353,41.486L43.353,42.686L43.487,42.82L43.487,43.487L43.62,43.62L43.62,44.287L43.754,44.421L43.754,45.088L43.887,45.221L43.887,45.755L44.02,45.888L44.02,46.688L44.154,46.822L44.154,47.355L44.287,47.489L44.287,47.889L44.421,48.022L44.421,48.556L44.554,48.689L44.554,48.956L44.687,49.089L44.687,49.49L44.954,49.756L45.354,49.356L45.488,49.356L46.155,48.689L46.288,48.689L47.622,47.355L47.622,46.955L47.755,46.822L47.755,46.421L47.889,46.288L47.889,45.488L48.022,45.354L48.022,44.687L48.156,44.554L48.156,43.887L48.289,43.754L48.289,43.22L48.422,43.087L48.422,42.553L48.556,42.42L48.556,42.019L48.689,41.886L48.689,41.486L48.823,41.352L48.823,40.952L48.956,40.819L48.956,40.419L49.089,40.285L49.089,40.152L49.223,40.019L49.223,39.885L49.356,39.752L49.623,39.752L49.756,39.885L49.756,40.152L49.89,40.285L49.89,40.419L49.756,40.552L49.756,41.219L49.89,41.352L51.491,41.352L51.624,41.219L52.157,41.219L52.291,41.086L52.291,40.952L52.424,40.819L52.424,40.686L52.558,40.552L52.558,40.419L52.824,40.152L52.824,40.019L52.958,39.885L52.958,39.618L53.091,39.485L53.091,39.352L53.225,39.218L53.225,39.085L53.358,38.951L53.358,38.685L53.491,38.551L53.491,38.418L53.625,38.284L53.625,38.018L53.758,37.884L53.758,37.751L53.892,37.617L53.892,37.351L54.025,37.217L54.025,36.95L54.158,36.817L54.158,36.55L54.292,36.417L54.292,36.15L54.425,36.017L54.425,35.616L54.559,35.483L54.559,35.216L54.692,35.083L54.692,34.683L54.825,34.549L54.825,34.016L54.959,33.882L54.959,33.349L55.092,33.215L55.092,32.682L55.226,32.548L55.226,31.615L55.359,31.481L55.359,30.147L55.492,30.014L55.492,26.679L55.359,26.546L55.359,25.212L55.226,25.078L55.226,24.145L55.092,24.011L55.092,23.478L54.959,23.344L54.959,22.811L54.825,22.677L54.825,22.144L54.692,22.01L54.692,21.61L54.559,21.477L54.559,21.21L54.425,21.076L54.425,20.676L54.292,20.543L54.292,20.276L54.158,20.143L54.158,19.876L54.025,19.742L54.025,19.476L53.892,19.342L53.892,19.075L53.758,18.942L53.758,18.809L53.625,18.675L53.625,18.409L53.491,18.275L53.491,18.142L53.358,18.008L53.358,17.742L53.225,17.608L53.225,17.475L53.091,17.341L53.091,17.208L52.958,17.075L52.958,16.808L52.824,16.674L52.824,16.541L52.558,16.274L52.558,16.141L52.424,16.007L52.424,15.874L52.291,15.741L52.291,15.607L52.157,15.474L52.157,15.34L52.024,15.207L52.024,15.074L51.891,14.94L51.891,14.807L51.624,14.54L51.624,14.407L51.491,14.273L51.491,14.14L51.224,13.873L50.69,13.873L50.557,13.74L49.756,13.74L49.623,13.606L48.956,13.606L48.823,13.473L48.156,13.473L48.022,13.34L47.222,13.34L47.088,13.206L46.155,13.206L46.021,13.073L44.954,13.073L44.821,12.939L43.62,12.939L43.487,12.806L42.42,12.806L42.286,12.673L41.086,12.673L40.952,12.539L39.085,12.539L38.951,12.406L28.947,12.406L28.813,12.539ZM36.017,17.875L36.417,17.875L36.55,18.008L37.484,18.008L37.617,18.142L38.284,18.142L38.418,18.275L38.685,18.275L38.818,18.409L39.085,18.409L39.218,18.542L39.352,18.542L39.485,18.675L39.752,18.675L39.885,18.809L40.152,18.809L40.419,19.075L40.552,19.075L40.819,19.342L40.952,19.342L41.219,19.609L41.352,19.609L42.153,20.409L42.153,20.543L42.42,20.81L42.42,20.943L42.553,21.076L42.553,21.343L42.686,21.477L42.686,21.61L42.82,21.743L42.82,22.01L42.953,22.144L42.953,23.478L42.82,23.611L42.82,23.744L42.686,23.878L42.686,24.145L42.553,24.278L42.553,24.411L42.42,24.545L42.42,24.678L42.286,24.811L42.286,24.945L42.153,25.078L42.153,25.212L42.019,25.345L41.886,25.345L41.753,25.478L41.753,25.612L41.619,25.612L40.952,26.279L40.819,26.279L40.686,26.412L40.552,26.412L40.419,26.546L40.285,26.546L40.019,26.812L39.752,26.812L39.618,26.946L39.485,26.946L39.352,27.079L39.085,27.079L38.951,27.213L38.685,27.213L38.551,27.346L38.018,27.346L37.884,27.479L37.351,27.479L37.217,27.613L36.817,27.613L36.684,27.746L35.883,27.746L35.75,27.613L34.95,27.613L34.816,27.479L34.416,27.479L34.283,27.346L33.749,27.346L33.616,27.213L33.349,27.213L33.215,27.079L32.949,27.079L32.815,26.946L32.682,26.946L32.548,26.812L32.282,26.812L32.148,26.679L32.015,26.679L31.748,26.412L31.615,26.412L31.348,26.145L31.214,26.145L30.681,25.612L30.547,25.612L30.281,25.345L30.281,25.212L30.014,24.945L30.014,24.811L29.881,24.678L29.881,24.545L29.747,24.411L29.747,24.278L29.614,24.145L29.614,24.011L29.48,23.878L29.48,23.478L29.347,23.344L29.347,23.077L29.214,22.944L29.347,22.811L29.347,22.144L29.48,22.01L29.48,21.743L29.614,21.61L29.614,21.343L29.747,21.21L29.747,21.076L29.881,20.943L29.881,20.81L30.014,20.81L30.147,20.676L30.147,20.543L30.281,20.409L30.281,20.276L31.081,19.476L31.214,19.476L31.348,19.342L31.481,19.342L31.748,19.075L31.881,19.075L32.015,18.942L32.148,18.942L32.415,18.675L32.682,18.675L32.815,18.542L33.082,18.542L33.215,18.409L33.482,18.409L33.616,18.275L34.016,18.275L34.149,18.142L34.416,18.142L34.549,18.008L35.883,18.008L36.017,17.875ZM34.683,18.809L34.283,18.809L34.149,18.942L33.749,18.942L33.616,19.075L33.349,19.075L33.215,19.209L32.949,19.209L32.815,19.342L32.682,19.342L32.548,19.476L32.415,19.476L32.282,19.609L32.148,19.609L32.015,19.742L31.881,19.742L31.481,20.143L31.348,20.143L30.814,20.676L30.814,20.81L30.414,21.21L30.414,21.343L30.281,21.477L30.281,21.61L30.147,21.743L30.147,22.01L30.014,22.144L30.014,23.478L30.147,23.611L30.147,23.744L30.281,23.878L30.281,24.145L30.547,24.411L30.547,24.545L30.948,24.945L30.948,25.078L31.348,25.478L31.481,25.478L31.748,25.745L31.881,25.745L32.148,26.012L32.282,26.012L32.415,26.145L32.548,26.145L32.682,26.279L32.949,26.279L33.082,26.412L33.215,26.412L33.349,26.546L33.616,26.546L33.749,26.679L34.149,26.679L34.283,26.812L34.816,26.812L34.95,26.946L37.351,26.946L37.484,26.812L38.018,26.812L38.151,26.679L38.551,26.679L38.685,26.546L38.951,26.546L39.085,26.412L39.218,26.412L39.352,26.279L39.618,26.279L39.752,26.145L39.885,26.145L40.019,26.012L40.152,26.012L40.419,25.745L40.552,25.745L40.952,25.345L41.086,25.345L41.486,24.945L41.486,24.811L41.886,24.411L41.886,24.278L42.019,24.145L42.019,23.878L42.153,23.744L42.153,23.478L42.286,23.344L42.286,22.144L42.153,22.01L42.153,21.743L42.019,21.61L42.019,21.477L41.886,21.343L41.886,21.21L41.619,20.943L41.619,20.81L40.819,20.009L40.686,20.009L40.419,19.742L40.285,19.742L40.019,19.476L39.752,19.476L39.618,19.342L39.485,19.342L39.352,19.209L39.085,19.209L38.951,19.075L38.685,19.075L38.551,18.942L38.151,18.942L38.018,18.809L37.484,18.809L37.351,18.675L34.816,18.675L34.683,18.809ZM36.817,19.209L37.617,19.209L37.751,19.342L38.284,19.342L38.418,19.476L38.685,19.476L38.818,19.609L38.951,19.609L39.085,19.742L39.218,19.742L39.485,20.009L39.618,20.009L40.152,20.543L40.152,20.676L40.285,20.81L40.285,20.943L40.419,21.076L40.419,21.477L40.552,21.61L40.552,22.144L40.419,22.277L40.419,22.677L40.285,22.811L40.285,22.944L39.885,23.344L39.885,23.478L39.618,23.744L39.485,23.744L39.218,24.011L39.085,24.011L38.951,24.145L38.818,24.145L38.685,24.278L38.418,24.278L38.284,24.411L37.751,24.411L37.617,24.545L36.817,24.545L36.684,24.411L36.15,24.411L36.017,24.278L35.75,24.278L35.616,24.145L35.483,24.145L35.35,24.011L35.216,24.011L34.816,23.611L34.683,23.611L34.416,23.344L34.416,23.211L34.149,22.944L34.149,22.811L34.016,22.677L34.016,22.277L33.882,22.144L33.882,21.61L34.016,21.477L34.016,21.076L34.149,20.943L34.149,20.81L34.416,20.543L34.416,20.409L34.683,20.143L34.816,20.143L35.216,19.742L35.35,19.742L35.483,19.609L35.616,19.609L35.75,19.476L36.017,19.476L36.15,19.342L36.684,19.342L36.817,19.209ZM35.643,20.81L35.616,20.81L35.483,20.943L35.483,21.21L35.5,21.227C35.5,21.235 35.5,21.242 35.5,21.25C35.5,21.664 35.836,22 36.25,22C36.664,22 37,21.664 37,21.25C37,20.836 36.664,20.5 36.25,20.5C36.001,20.5 35.779,20.622 35.643,20.81Z"/>
    </g>
</svg>
