<?xml version="1.0" encoding="UTF-8" standalone="no"?>
<!DOCTYPE svg PUBLIC "-//W3C//DTD SVG 1.1//EN" "http://www.w3.org/Graphics/SVG/1.1/DTD/svg11.dtd">
<svg width="100%" height="100%" viewBox="0 0 3300 2550" version="1.1" xmlns="http://www.w3.org/2000/svg" xmlns:xlink="http://www.w3.org/1999/xlink" xml:space="preserve" xmlns:serif="http://www.serif.com/" style="fill-rule:evenodd;clip-rule:evenodd;stroke-linejoin:round;stroke-miterlimit:2;">
    <g transform="matrix(1.0122,0,0,1.96143,-207.607,-90.5493)">
        <path d="M876,188.052L876,240.768C876,243.104 872.326,245 867.8,245L802.2,245C797.674,245 794,243.104 794,240.768L794,188.052C794,185.716 797.674,183.82 802.2,183.82L867.8,183.82C872.326,183.82 876,185.716 876,188.052ZM847.872,192.428L847.872,190.807L840.38,190.807L840.38,192.175L844.76,192.175L844.76,192.77C844.76,193.454 844.501,193.989 843.752,194.435C842.945,194.926 841.735,195.194 840.38,195.194C839.141,195.194 838.104,194.956 837.326,194.539C836.317,193.974 836.116,193.335 836.116,191.238C836.116,189.141 836.317,188.502 837.326,187.937C838.104,187.521 839.141,187.283 840.38,187.283C842.685,187.283 844.184,187.967 844.703,189.127L847.815,189.127C847.267,187.327 844.703,185.855 840.38,185.855C838.133,185.855 836.404,186.242 835.078,186.926C833.09,187.967 833.004,189.022 833.004,191.238C833.004,193.454 833.09,194.51 835.078,195.55C836.404,196.234 838.133,196.621 840.38,196.621C842.541,196.621 844.501,196.249 846.028,195.417C847.382,194.658 847.872,193.811 847.872,192.428ZM870.435,196.532L870.435,195.179L862.078,195.179L868.504,191.119C869.772,190.316 870.435,189.766 870.435,188.829C870.435,187 868.014,185.855 864.499,185.855C861.012,185.855 858.534,187.045 858.534,188.844L861.473,188.844C861.473,187.654 862.943,187.208 864.499,187.208C866.4,187.208 867.495,187.863 867.495,188.814C867.495,189.35 867.178,189.736 866.4,190.227L858.505,195.179L858.505,196.532L870.435,196.532ZM847.872,207.723L847.872,206.102L840.38,206.102L840.38,207.47L844.76,207.47L844.76,208.065C844.76,208.749 844.501,209.284 843.752,209.73C842.945,210.221 841.735,210.489 840.38,210.489C839.141,210.489 838.104,210.251 837.326,209.834C836.317,209.269 836.116,208.63 836.116,206.533C836.116,204.436 836.317,203.797 837.326,203.232C838.104,202.816 839.141,202.578 840.38,202.578C842.685,202.578 844.184,203.262 844.703,204.422L847.815,204.422C847.267,202.622 844.703,201.15 840.38,201.15C838.133,201.15 836.404,201.537 835.078,202.221C833.09,203.262 833.004,204.317 833.004,206.533C833.004,208.749 833.09,209.805 835.078,210.845C836.404,211.529 838.133,211.916 840.38,211.916C842.541,211.916 844.501,211.544 846.028,210.712C847.382,209.953 847.872,209.106 847.872,207.723ZM870.463,208.853C870.463,207.544 869.34,206.756 867.582,206.355C869.167,205.953 870.146,205.225 870.146,204.094C870.146,202.34 867.668,201.135 864.182,201.135C860.897,201.135 858.332,202.221 858.159,204.02L861.098,204.02C861.242,203.083 862.395,202.503 864.182,202.503C865.853,202.503 867.207,203.068 867.207,204.139C867.207,205.106 866.228,205.745 864.095,205.745L863.605,205.745L863.605,207.068L864.095,207.068C866.4,207.068 867.524,207.738 867.524,208.808C867.524,209.923 866.083,210.563 864.182,210.563C862.482,210.563 860.954,210.087 860.839,208.957L857.9,208.957C858.015,211.024 860.897,211.931 864.182,211.931C867.611,211.931 870.463,210.89 870.463,208.853ZM847.872,223.018L847.872,221.397L840.38,221.397L840.38,222.765L844.76,222.765L844.76,223.36C844.76,224.044 844.501,224.579 843.752,225.025C842.945,225.516 841.735,225.784 840.38,225.784C839.141,225.784 838.104,225.546 837.326,225.129C836.317,224.564 836.116,223.925 836.116,221.828C836.116,219.731 836.317,219.092 837.326,218.527C838.104,218.111 839.141,217.873 840.38,217.873C842.685,217.873 844.184,218.557 844.703,219.717L847.815,219.717C847.267,217.917 844.703,216.445 840.38,216.445C838.133,216.445 836.404,216.832 835.078,217.516C833.09,218.557 833.004,219.612 833.004,221.828C833.004,224.044 833.09,225.1 835.078,226.14C836.404,226.824 838.133,227.211 840.38,227.211C842.541,227.211 844.501,226.839 846.028,226.007C847.382,225.248 847.872,224.401 847.872,223.018ZM871.04,225.531L871.04,224.118L868.85,224.118L868.85,221.65L865.997,221.65L865.997,224.118L860.897,224.118L868.101,216.534L864.931,216.534L857.698,224.118L857.698,225.531L865.997,225.531L865.997,227.122L868.85,227.122L868.85,225.531L871.04,225.531ZM847.872,238.313L847.872,236.692L840.38,236.692L840.38,238.06L844.76,238.06L844.76,238.655C844.76,239.339 844.501,239.874 843.752,240.32C842.945,240.811 841.735,241.079 840.38,241.079C839.141,241.079 838.104,240.841 837.326,240.424C836.317,239.859 836.116,239.22 836.116,237.123C836.116,235.026 836.317,234.387 837.326,233.822C838.104,233.406 839.141,233.168 840.38,233.168C842.685,233.168 844.184,233.852 844.703,235.012L847.815,235.012C847.267,233.212 844.703,231.74 840.38,231.74C838.133,231.74 836.404,232.127 835.078,232.811C833.09,233.852 833.004,234.907 833.004,237.123C833.004,239.339 833.09,240.395 835.078,241.435C836.404,242.119 838.133,242.506 840.38,242.506C842.541,242.506 844.501,242.134 846.028,241.302C847.382,240.543 847.872,239.696 847.872,238.313ZM870.492,238.878C870.492,237.881 870.262,236.855 868.706,236.052C867.87,235.621 866.631,235.368 865.017,235.368C863.519,235.368 862.309,235.606 861.617,235.978L861.617,233.182L870.031,233.182L870.031,231.829L858.966,231.829L858.966,237.614L861.646,237.614C861.963,237.093 862.885,236.662 864.556,236.662C866.919,236.662 867.553,237.614 867.553,238.878C867.553,239.592 867.438,240.29 866.573,240.737C866.055,241.004 865.305,241.153 864.441,241.153C862.597,241.153 861.675,240.618 861.444,239.681L858.505,239.681C858.62,240.439 858.966,241.138 860.061,241.703C860.954,242.164 862.482,242.521 864.441,242.521C866.429,242.521 867.841,242.164 868.763,241.688C870.262,240.915 870.492,240.008 870.492,238.878Z"/>
    </g>
    <g transform="matrix(1.0122,0,0,1.96143,-207.607,59.4507)">
        <path d="M876,188.052L876,240.768C876,243.104 872.326,245 867.8,245L802.2,245C797.674,245 794,243.104 794,240.768L794,188.052C794,185.716 797.674,183.82 802.2,183.82L867.8,183.82C872.326,183.82 876,185.716 876,188.052ZM847.872,223.018L847.872,221.397L840.38,221.397L840.38,222.765L844.76,222.765L844.76,223.36C844.76,224.044 844.501,224.579 843.752,225.025C842.945,225.516 841.735,225.784 840.38,225.784C839.141,225.784 838.104,225.546 837.326,225.129C836.317,224.564 836.116,223.925 836.116,221.828C836.116,219.731 836.317,219.092 837.326,218.527C838.104,218.111 839.141,217.873 840.38,217.873C842.685,217.873 844.184,218.557 844.703,219.717L847.815,219.717C847.267,217.917 844.703,216.445 840.38,216.445C838.133,216.445 836.404,216.832 835.078,217.516C833.09,218.557 833.004,219.612 833.004,221.828C833.004,224.044 833.09,225.1 835.078,226.14C836.404,226.824 838.133,227.211 840.38,227.211C842.541,227.211 844.501,226.839 846.028,226.007C847.382,225.248 847.872,224.401 847.872,223.018ZM870.694,224.133C870.694,222.869 869.311,222.096 867.87,221.65C869.195,221.233 870.348,220.49 870.348,219.375C870.348,217.605 867.697,216.445 864.355,216.445C861.012,216.445 858.39,217.605 858.39,219.375C858.39,220.49 859.542,221.233 860.868,221.65C859.427,222.096 858.044,222.869 858.044,224.133C858.044,226.051 860.839,227.211 864.355,227.211C867.87,227.211 870.694,226.051 870.694,224.133ZM867.409,219.419C867.409,220.356 866.141,221.025 864.355,221.025C862.568,221.025 861.329,220.356 861.329,219.419C861.329,218.497 862.568,217.798 864.355,217.798C866.141,217.798 867.409,218.497 867.409,219.419ZM867.726,224.103C867.726,225.085 866.256,225.858 864.355,225.858C862.453,225.858 860.983,225.085 860.983,224.103C860.983,223.122 862.453,222.334 864.355,222.334C866.256,222.334 867.726,223.122 867.726,224.103ZM847.872,192.428L847.872,190.807L840.38,190.807L840.38,192.175L844.76,192.175L844.76,192.77C844.76,193.454 844.501,193.989 843.752,194.435C842.945,194.926 841.735,195.194 840.38,195.194C839.141,195.194 838.104,194.956 837.326,194.539C836.317,193.974 836.116,193.335 836.116,191.238C836.116,189.141 836.317,188.502 837.326,187.937C838.104,187.521 839.141,187.283 840.38,187.283C842.685,187.283 844.184,187.967 844.703,189.127L847.815,189.127C847.267,187.327 844.703,185.855 840.38,185.855C838.133,185.855 836.404,186.242 835.078,186.926C833.09,187.967 833.004,189.022 833.004,191.238C833.004,193.454 833.09,194.51 835.078,195.55C836.404,196.234 838.133,196.621 840.38,196.621C842.541,196.621 844.501,196.249 846.028,195.417C847.382,194.658 847.872,193.811 847.872,192.428ZM847.872,207.723L847.872,206.102L840.38,206.102L840.38,207.47L844.76,207.47L844.76,208.065C844.76,208.749 844.501,209.284 843.752,209.73C842.945,210.221 841.735,210.489 840.38,210.489C839.141,210.489 838.104,210.251 837.326,209.834C836.317,209.269 836.116,208.63 836.116,206.533C836.116,204.436 836.317,203.797 837.326,203.232C838.104,202.816 839.141,202.578 840.38,202.578C842.685,202.578 844.184,203.262 844.703,204.422L847.815,204.422C847.267,202.622 844.703,201.15 840.38,201.15C838.133,201.15 836.404,201.537 835.078,202.221C833.09,203.262 833.004,204.317 833.004,206.533C833.004,208.749 833.09,209.805 835.078,210.845C836.404,211.529 838.133,211.916 840.38,211.916C842.541,211.916 844.501,211.544 846.028,210.712C847.382,209.953 847.872,209.106 847.872,207.723ZM870.723,202.592L870.723,201.239L858.505,201.239L858.505,204.258L861.329,204.258L861.329,202.592L867.582,202.592L860.695,211.827L863.865,211.827L870.723,202.592ZM847.872,238.313L847.872,236.692L840.38,236.692L840.38,238.06L844.76,238.06L844.76,238.655C844.76,239.339 844.501,239.874 843.752,240.32C842.945,240.811 841.735,241.079 840.38,241.079C839.141,241.079 838.104,240.841 837.326,240.424C836.317,239.859 836.116,239.22 836.116,237.123C836.116,235.026 836.317,234.387 837.326,233.822C838.104,233.406 839.141,233.168 840.38,233.168C842.685,233.168 844.184,233.852 844.703,235.012L847.815,235.012C847.267,233.212 844.703,231.74 840.38,231.74C838.133,231.74 836.404,232.127 835.078,232.811C833.09,233.852 833.004,234.907 833.004,237.123C833.004,239.339 833.09,240.395 835.078,241.435C836.404,242.119 838.133,242.506 840.38,242.506C842.541,242.506 844.501,242.134 846.028,241.302C847.382,240.543 847.872,239.696 847.872,238.313ZM870.435,234.907C870.435,232.945 867.899,231.74 864.355,231.74C860.81,231.74 858.303,233.019 858.303,234.967C858.303,236.826 860.695,238.03 863.663,238.03C864.297,238.03 864.96,237.986 865.507,237.867L861.098,242.417L864.239,242.417L868.907,237.51C869.801,236.588 870.435,235.77 870.435,234.907ZM867.495,234.937C867.495,236.082 866.199,236.766 864.355,236.766C862.395,236.766 861.242,235.978 861.242,234.937C861.242,233.807 862.51,233.093 864.355,233.093C866.199,233.093 867.495,233.807 867.495,234.937ZM870.435,193.394C870.435,191.535 868.014,190.331 865.046,190.331C864.412,190.331 863.778,190.376 863.231,190.495L867.639,185.944L864.499,185.944L859.831,190.851C858.937,191.773 858.303,192.591 858.303,193.454C858.303,195.417 860.839,196.621 864.383,196.621C867.928,196.621 870.435,195.342 870.435,193.394ZM867.495,193.424C867.495,194.554 866.199,195.268 864.355,195.268C862.51,195.268 861.242,194.554 861.242,193.424C861.242,192.279 862.51,191.595 864.355,191.595C866.314,191.595 867.495,192.383 867.495,193.424Z"/>
    </g>
    <g transform="matrix(1.0122,0,0,1.96143,-207.607,209.451)">
        <path d="M876,188.052L876,240.768C876,243.104 872.326,245 867.8,245L802.2,245C797.674,245 794,243.104 794,240.768L794,188.052C794,185.716 797.674,183.82 802.2,183.82L867.8,183.82C872.326,183.82 876,185.716 876,188.052ZM870.463,239.443C870.463,238.134 869.34,237.346 867.582,236.945C869.167,236.543 870.146,235.815 870.146,234.684C870.146,232.93 867.668,231.725 864.182,231.725C860.897,231.725 858.332,232.811 858.159,234.61L861.098,234.61C861.242,233.673 862.395,233.093 864.182,233.093C865.853,233.093 867.207,233.658 867.207,234.729C867.207,235.696 866.228,236.335 864.095,236.335L863.605,236.335L863.605,237.658L864.095,237.658C866.4,237.658 867.524,238.328 867.524,239.398C867.524,240.513 866.083,241.153 864.182,241.153C862.482,241.153 860.954,240.677 860.839,239.547L857.9,239.547C858.015,241.614 860.897,242.521 864.182,242.521C867.611,242.521 870.463,241.48 870.463,239.443ZM851.561,211.827L851.561,201.239L848.621,201.239L844.616,203.024L844.616,204.704L848.621,202.89L848.621,211.827L851.561,211.827ZM832.514,192.428L832.514,190.807L825.022,190.807L825.022,192.175L829.402,192.175L829.402,192.77C829.402,193.454 829.142,193.989 828.393,194.435C827.586,194.926 826.376,195.194 825.022,195.194C823.783,195.194 822.745,194.956 821.967,194.539C820.959,193.974 820.757,193.335 820.757,191.238C820.757,189.141 820.959,188.502 821.967,187.937C822.745,187.521 823.783,187.283 825.022,187.283C827.327,187.283 828.825,187.967 829.344,189.127L832.456,189.127C831.909,187.327 829.344,185.855 825.022,185.855C822.774,185.855 821.045,186.242 819.72,186.926C817.731,187.967 817.645,189.022 817.645,191.238C817.645,193.454 817.731,194.51 819.72,195.55C821.045,196.234 822.774,196.621 825.022,196.621C827.183,196.621 829.142,196.249 830.669,195.417C832.024,194.658 832.514,193.811 832.514,192.428ZM851.561,196.532L851.561,185.944L848.621,185.944L844.616,187.729L844.616,189.409L848.621,187.595L848.621,196.532L851.561,196.532ZM832.514,238.313L832.514,236.692L825.022,236.692L825.022,238.06L829.402,238.06L829.402,238.655C829.402,239.339 829.142,239.874 828.393,240.32C827.586,240.811 826.376,241.079 825.022,241.079C823.783,241.079 822.745,240.841 821.967,240.424C820.959,239.859 820.757,239.22 820.757,237.123C820.757,235.026 820.959,234.387 821.967,233.822C822.745,233.406 823.783,233.168 825.022,233.168C827.327,233.168 828.825,233.852 829.344,235.012L832.456,235.012C831.909,233.212 829.344,231.74 825.022,231.74C822.774,231.74 821.045,232.127 819.72,232.811C817.731,233.852 817.645,234.907 817.645,237.123C817.645,239.339 817.731,240.395 819.72,241.435C821.045,242.119 822.774,242.506 825.022,242.506C827.183,242.506 829.142,242.134 830.669,241.302C832.024,240.543 832.514,239.696 832.514,238.313ZM851.561,227.122L851.561,216.534L848.621,216.534L844.616,218.319L844.616,219.999L848.621,218.185L848.621,227.122L851.561,227.122ZM832.514,223.018L832.514,221.397L825.022,221.397L825.022,222.765L829.402,222.765L829.402,223.36C829.402,224.044 829.142,224.579 828.393,225.025C827.586,225.516 826.376,225.784 825.022,225.784C823.783,225.784 822.745,225.546 821.967,225.129C820.959,224.564 820.757,223.925 820.757,221.828C820.757,219.731 820.959,219.092 821.967,218.527C822.745,218.111 823.783,217.873 825.022,217.873C827.327,217.873 828.825,218.557 829.344,219.717L832.456,219.717C831.909,217.917 829.344,216.445 825.022,216.445C822.774,216.445 821.045,216.832 819.72,217.516C817.731,218.557 817.645,219.612 817.645,221.828C817.645,224.044 817.731,225.1 819.72,226.14C821.045,226.824 822.774,227.211 825.022,227.211C827.183,227.211 829.142,226.839 830.669,226.007C832.024,225.248 832.514,224.401 832.514,223.018ZM851.561,242.417L851.561,231.829L848.621,231.829L844.616,233.614L844.616,235.294L848.621,233.48L848.621,242.417L851.561,242.417ZM866.919,211.827L866.919,201.239L863.98,201.239L859.975,203.024L859.975,204.704L863.98,202.89L863.98,211.827L866.919,211.827ZM870.435,227.122L870.435,225.769L862.078,225.769L868.504,221.709C869.772,220.906 870.435,220.356 870.435,219.419C870.435,217.59 868.014,216.445 864.499,216.445C861.012,216.445 858.534,217.635 858.534,219.434L861.473,219.434C861.473,218.244 862.943,217.798 864.499,217.798C866.4,217.798 867.495,218.453 867.495,219.404C867.495,219.94 867.178,220.326 866.4,220.817L858.505,225.769L858.505,227.122L870.435,227.122ZM832.514,207.723L832.514,206.102L825.022,206.102L825.022,207.47L829.402,207.47L829.402,208.065C829.402,208.749 829.142,209.284 828.393,209.73C827.586,210.221 826.376,210.489 825.022,210.489C823.783,210.489 822.745,210.251 821.967,209.834C820.959,209.269 820.757,208.63 820.757,206.533C820.757,204.436 820.959,203.797 821.967,203.232C822.745,202.816 823.783,202.578 825.022,202.578C827.327,202.578 828.825,203.262 829.344,204.422L832.456,204.422C831.909,202.622 829.344,201.15 825.022,201.15C822.774,201.15 821.045,201.537 819.72,202.221C817.731,203.262 817.645,204.317 817.645,206.533C817.645,208.749 817.731,209.805 819.72,210.845C821.045,211.529 822.774,211.916 825.022,211.916C827.183,211.916 829.142,211.544 830.669,210.712C832.024,209.953 832.514,209.106 832.514,207.723ZM870.29,193.588L870.29,188.889C870.29,187 867.639,185.855 864.355,185.855C861.098,185.855 858.447,187 858.447,188.889L858.447,193.588C858.447,195.476 861.098,196.621 864.355,196.621C867.639,196.621 870.29,195.476 870.29,193.588ZM867.351,193.543C867.351,194.554 866.228,195.268 864.355,195.268C862.51,195.268 861.387,194.554 861.387,193.543L861.387,188.933C861.387,187.922 862.51,187.208 864.355,187.208C866.228,187.208 867.351,187.922 867.351,188.933L867.351,193.543Z"/>
    </g>
    <g transform="matrix(1.0122,0,0,0.980713,-207.607,539.725)">
        <path d="M876,189.938L876,238.882C876,242.259 873.344,245 870.072,245L799.928,245C796.656,245 794,242.259 794,238.882L794,189.938C794,186.561 796.656,183.82 799.928,183.82L870.072,183.82C873.344,183.82 876,186.561 876,189.938ZM832.514,201.035L832.514,197.794L825.022,197.794L825.022,200.53L829.402,200.53L829.402,201.719C829.402,203.087 829.142,204.158 828.393,205.05C827.586,206.032 826.376,206.567 825.022,206.567C823.783,206.567 822.745,206.091 821.967,205.258C820.959,204.128 820.757,202.85 820.757,198.656C820.757,194.463 820.959,193.184 821.967,192.054C822.745,191.221 823.783,190.745 825.022,190.745C827.327,190.745 828.825,192.113 829.344,194.433L832.456,194.433C831.909,190.834 829.344,187.89 825.022,187.89C822.774,187.89 821.045,188.663 819.72,190.031C817.731,192.113 817.645,194.225 817.645,198.656C817.645,203.087 817.731,205.199 819.72,207.281C821.045,208.649 822.774,209.422 825.022,209.422C827.183,209.422 829.142,208.679 830.669,207.013C832.024,205.496 832.514,203.801 832.514,201.035ZM871.04,206.061L871.04,203.236L868.85,203.236L868.85,198.299L865.997,198.299L865.997,203.236L860.897,203.236L868.101,188.069L864.931,188.069L857.698,203.236L857.698,206.061L865.997,206.061L865.997,209.244L868.85,209.244L868.85,206.061L871.04,206.061ZM832.514,231.625L832.514,228.384L825.022,228.384L825.022,231.12L829.402,231.12L829.402,232.309C829.402,233.677 829.142,234.748 828.393,235.64C827.586,236.622 826.376,237.157 825.022,237.157C823.783,237.157 822.745,236.681 821.967,235.848C820.959,234.718 820.757,233.44 820.757,229.246C820.757,225.053 820.959,223.774 821.967,222.644C822.745,221.811 823.783,221.335 825.022,221.335C827.327,221.335 828.825,222.703 829.344,225.023L832.456,225.023C831.909,221.424 829.344,218.48 825.022,218.48C822.774,218.48 821.045,219.253 819.72,220.621C817.731,222.703 817.645,224.815 817.645,229.246C817.645,233.677 817.731,235.789 819.72,237.871C821.045,239.239 822.774,240.012 825.022,240.012C827.183,240.012 829.142,239.269 830.669,237.603C832.024,236.086 832.514,234.391 832.514,231.625ZM851.561,239.834L851.561,218.659L848.621,218.659L844.616,222.227L844.616,225.588L848.621,221.96L848.621,239.834L851.561,239.834ZM851.561,209.244L851.561,188.069L848.621,188.069L844.616,191.637L844.616,194.998L848.621,191.37L848.621,209.244L851.561,209.244ZM870.492,232.756C870.492,230.763 870.262,228.711 868.706,227.105C867.87,226.242 866.631,225.737 865.017,225.737C863.519,225.737 862.309,226.213 861.617,226.956L861.617,221.365L870.031,221.365L870.031,218.659L858.966,218.659L858.966,230.228L861.646,230.228C861.963,229.187 862.885,228.324 864.556,228.324C866.919,228.324 867.553,230.228 867.553,232.756C867.553,234.183 867.438,235.581 866.573,236.473C866.055,237.008 865.305,237.306 864.441,237.306C862.597,237.306 861.675,236.235 861.444,234.361L858.505,234.361C858.62,235.878 858.966,237.276 860.061,238.406C860.954,239.328 862.482,240.042 864.441,240.042C866.429,240.042 867.841,239.328 868.763,238.376C870.262,236.83 870.492,235.016 870.492,232.756Z"/>
    </g>
    <g transform="matrix(1.0122,0,0,0.980713,-207.607,-0.27464)">
        <path d="M876,189.938L876,238.882C876,242.259 873.344,245 870.072,245L799.928,245C796.656,245 794,242.259 794,238.882L794,189.938C794,186.561 796.656,183.82 799.928,183.82L870.072,183.82C873.344,183.82 876,186.561 876,189.938ZM847.872,201.035L847.872,197.794L840.38,197.794L840.38,200.53L844.76,200.53L844.76,201.719C844.76,203.087 844.501,204.158 843.752,205.05C842.945,206.032 841.735,206.567 840.38,206.567C839.141,206.567 838.104,206.091 837.326,205.258C836.317,204.128 836.116,202.85 836.116,198.656C836.116,194.463 836.317,193.184 837.326,192.054C838.104,191.221 839.141,190.745 840.38,190.745C842.685,190.745 844.184,192.113 844.703,194.433L847.815,194.433C847.267,190.834 844.703,187.89 840.38,187.89C838.133,187.89 836.404,188.663 835.078,190.031C833.09,192.113 833.004,194.225 833.004,198.656C833.004,203.087 833.09,205.199 835.078,207.281C836.404,208.649 838.133,209.422 840.38,209.422C842.541,209.422 844.501,208.679 846.028,207.013C847.382,205.496 847.872,203.801 847.872,201.035ZM870.29,203.355L870.29,193.957C870.29,190.18 867.639,187.89 864.355,187.89C861.098,187.89 858.447,190.18 858.447,193.957L858.447,203.355C858.447,207.132 861.098,209.422 864.355,209.422C867.639,209.422 870.29,207.132 870.29,203.355ZM867.351,203.266C867.351,205.288 866.228,206.716 864.355,206.716C862.51,206.716 861.387,205.288 861.387,203.266L861.387,194.046C861.387,192.024 862.51,190.597 864.355,190.597C866.228,190.597 867.351,192.024 867.351,194.046L867.351,203.266ZM866.919,239.834L866.919,218.659L863.98,218.659L859.975,222.227L859.975,225.588L863.98,221.96L863.98,239.834L866.919,239.834ZM847.872,231.625L847.872,228.384L840.38,228.384L840.38,231.12L844.76,231.12L844.76,232.309C844.76,233.677 844.501,234.748 843.752,235.64C842.945,236.622 841.735,237.157 840.38,237.157C839.141,237.157 838.104,236.681 837.326,235.848C836.317,234.718 836.116,233.44 836.116,229.246C836.116,225.053 836.317,223.774 837.326,222.644C838.104,221.811 839.141,221.335 840.38,221.335C842.685,221.335 844.184,222.703 844.703,225.023L847.815,225.023C847.267,221.424 844.703,218.48 840.38,218.48C838.133,218.48 836.404,219.253 835.078,220.621C833.09,222.703 833.004,224.815 833.004,229.246C833.004,233.677 833.09,235.789 835.078,237.871C836.404,239.239 838.133,240.012 840.38,240.012C842.541,240.012 844.501,239.269 846.028,237.603C847.382,236.086 847.872,234.391 847.872,231.625Z"/>
    </g>
    <g transform="matrix(1.5,0,0,0.333333,-674.924,150)">
        <path d="M871.728,320.65L871.728,311.112L866.672,311.112L866.672,319.162L869.628,319.162L869.628,322.662C869.628,326.687 869.453,329.837 868.947,332.462C868.403,335.35 867.586,336.925 866.672,336.925C865.836,336.925 865.136,335.525 864.611,333.075C863.931,329.75 863.794,325.987 863.794,313.65C863.794,301.312 863.931,297.55 864.611,294.225C865.136,291.775 865.836,290.375 866.672,290.375C868.228,290.375 869.239,294.4 869.589,301.225L871.689,301.225C871.319,290.638 869.589,281.975 866.672,281.975C865.156,281.975 863.989,284.25 863.094,288.275C861.753,294.4 861.694,300.612 861.694,313.65C861.694,326.687 861.753,332.9 863.094,339.025C863.989,343.05 865.156,345.325 866.672,345.325C868.131,345.325 869.453,343.137 870.483,338.237C871.397,333.775 871.728,328.787 871.728,320.65Z" style="fill-rule:nonzero;"/>
        <path d="M885.242,344.8L885.242,282.5L883.142,282.5L883.142,326.25L876.744,282.5L874.819,282.5L874.819,344.8L876.919,344.8L876.919,300.962L883.317,344.8L885.242,344.8Z" style="fill-rule:nonzero;"/>
        <path d="M898.697,313.65C898.697,303.675 898.658,295.975 897.647,290.375C896.675,284.95 895.45,282.5 893.719,282.5L888.858,282.5L888.858,344.8L893.719,344.8C895.45,344.8 896.675,342.35 897.647,336.925C898.658,331.325 898.697,323.625 898.697,313.65ZM896.597,313.65C896.597,322.925 896.539,328.7 895.858,332.112C895.275,335.175 894.478,336.4 893.486,336.4L890.958,336.4L890.958,290.9L893.486,290.9C894.478,290.9 895.275,292.125 895.858,295.187C896.539,298.6 896.597,304.375 896.597,313.65Z" style="fill-rule:nonzero;"/>
    </g>
    <g transform="matrix(1.5,0,0,0.333333,-674.924,300)">
        <path d="M871.728,320.65L871.728,311.112L866.672,311.112L866.672,319.162L869.628,319.162L869.628,322.662C869.628,326.687 869.453,329.837 868.947,332.462C868.403,335.35 867.586,336.925 866.672,336.925C865.836,336.925 865.136,335.525 864.611,333.075C863.931,329.75 863.794,325.987 863.794,313.65C863.794,301.312 863.931,297.55 864.611,294.225C865.136,291.775 865.836,290.375 866.672,290.375C868.228,290.375 869.239,294.4 869.589,301.225L871.689,301.225C871.319,290.638 869.589,281.975 866.672,281.975C865.156,281.975 863.989,284.25 863.094,288.275C861.753,294.4 861.694,300.612 861.694,313.65C861.694,326.687 861.753,332.9 863.094,339.025C863.989,343.05 865.156,345.325 866.672,345.325C868.131,345.325 869.453,343.137 870.483,338.237C871.397,333.775 871.728,328.787 871.728,320.65Z" style="fill-rule:nonzero;"/>
        <path d="M885.242,344.8L885.242,282.5L883.142,282.5L883.142,326.25L876.744,282.5L874.819,282.5L874.819,344.8L876.919,344.8L876.919,300.962L883.317,344.8L885.242,344.8Z" style="fill-rule:nonzero;"/>
        <path d="M898.697,313.65C898.697,303.675 898.658,295.975 897.647,290.375C896.675,284.95 895.45,282.5 893.719,282.5L888.858,282.5L888.858,344.8L893.719,344.8C895.45,344.8 896.675,342.35 897.647,336.925C898.658,331.325 898.697,323.625 898.697,313.65ZM896.597,313.65C896.597,322.925 896.539,328.7 895.858,332.112C895.275,335.175 894.478,336.4 893.486,336.4L890.958,336.4L890.958,290.9L893.486,290.9C894.478,290.9 895.275,292.125 895.858,295.187C896.539,298.6 896.597,304.375 896.597,313.65Z" style="fill-rule:nonzero;"/>
    </g>
    <g transform="matrix(1.5,0,0,0.333333,-674.924,600)">
        <path d="M871.728,320.65L871.728,311.112L866.672,311.112L866.672,319.162L869.628,319.162L869.628,322.662C869.628,326.687 869.453,329.837 868.947,332.462C868.403,335.35 867.586,336.925 866.672,336.925C865.836,336.925 865.136,335.525 864.611,333.075C863.931,329.75 863.794,325.987 863.794,313.65C863.794,301.312 863.931,297.55 864.611,294.225C865.136,291.775 865.836,290.375 866.672,290.375C868.228,290.375 869.239,294.4 869.589,301.225L871.689,301.225C871.319,290.638 869.589,281.975 866.672,281.975C865.156,281.975 863.989,284.25 863.094,288.275C861.753,294.4 861.694,300.612 861.694,313.65C861.694,326.687 861.753,332.9 863.094,339.025C863.989,343.05 865.156,345.325 866.672,345.325C868.131,345.325 869.453,343.137 870.483,338.237C871.397,333.775 871.728,328.787 871.728,320.65Z" style="fill-rule:nonzero;"/>
        <path d="M885.242,344.8L885.242,282.5L883.142,282.5L883.142,326.25L876.744,282.5L874.819,282.5L874.819,344.8L876.919,344.8L876.919,300.962L883.317,344.8L885.242,344.8Z" style="fill-rule:nonzero;"/>
        <path d="M898.697,313.65C898.697,303.675 898.658,295.975 897.647,290.375C896.675,284.95 895.45,282.5 893.719,282.5L888.858,282.5L888.858,344.8L893.719,344.8C895.45,344.8 896.675,342.35 897.647,336.925C898.658,331.325 898.697,323.625 898.697,313.65ZM896.597,313.65C896.597,322.925 896.539,328.7 895.858,332.112C895.275,335.175 894.478,336.4 893.486,336.4L890.958,336.4L890.958,290.9L893.486,290.9C894.478,290.9 895.275,292.125 895.858,295.187C896.539,298.6 896.597,304.375 896.597,313.65Z" style="fill-rule:nonzero;"/>
    </g>
    <g transform="matrix(1.5,0,0,0.333333,-674.924,450)">
        <path d="M871.728,320.65L871.728,311.112L866.672,311.112L866.672,319.162L869.628,319.162L869.628,322.662C869.628,326.687 869.453,329.837 868.947,332.462C868.403,335.35 867.586,336.925 866.672,336.925C865.836,336.925 865.136,335.525 864.611,333.075C863.931,329.75 863.794,325.987 863.794,313.65C863.794,301.312 863.931,297.55 864.611,294.225C865.136,291.775 865.836,290.375 866.672,290.375C868.228,290.375 869.239,294.4 869.589,301.225L871.689,301.225C871.319,290.638 869.589,281.975 866.672,281.975C865.156,281.975 863.989,284.25 863.094,288.275C861.753,294.4 861.694,300.612 861.694,313.65C861.694,326.687 861.753,332.9 863.094,339.025C863.989,343.05 865.156,345.325 866.672,345.325C868.131,345.325 869.453,343.137 870.483,338.237C871.397,333.775 871.728,328.787 871.728,320.65Z" style="fill-rule:nonzero;"/>
        <path d="M885.242,344.8L885.242,282.5L883.142,282.5L883.142,326.25L876.744,282.5L874.819,282.5L874.819,344.8L876.919,344.8L876.919,300.962L883.317,344.8L885.242,344.8Z" style="fill-rule:nonzero;"/>
        <path d="M898.697,313.65C898.697,303.675 898.658,295.975 897.647,290.375C896.675,284.95 895.45,282.5 893.719,282.5L888.858,282.5L888.858,344.8L893.719,344.8C895.45,344.8 896.675,342.35 897.647,336.925C898.658,331.325 898.697,323.625 898.697,313.65ZM896.597,313.65C896.597,322.925 896.539,328.7 895.858,332.112C895.275,335.175 894.478,336.4 893.486,336.4L890.958,336.4L890.958,290.9L893.486,290.9C894.478,290.9 895.275,292.125 895.858,295.187C896.539,298.6 896.597,304.375 896.597,313.65Z" style="fill-rule:nonzero;"/>
    </g>
</svg>
