<?xml version="1.0" encoding="UTF-8" standalone="no"?>
<!DOCTYPE svg PUBLIC "-//W3C//DTD SVG 1.1//EN" "http://www.w3.org/Graphics/SVG/1.1/DTD/svg11.dtd">
<svg width="100%" height="100%" viewBox="0 0 166 638" version="1.1" xmlns="http://www.w3.org/2000/svg" xmlns:xlink="http://www.w3.org/1999/xlink" xml:space="preserve" xmlns:serif="http://www.serif.com/" style="fill-rule:evenodd;clip-rule:evenodd;stroke-linejoin:round;stroke-miterlimit:2;">
    <g id="Artboard1" transform="matrix(1,0,0,1,-685.039,-165.354)">
        <rect x="685.039" y="165.354" width="165.354" height="637.795" style="fill:none;"/>
        <g transform="matrix(1.0122,0,0,4.41321,-76.6436,-540.882)">
            <path d="M876,185.701L876,243.119C876,244.157 872.326,245 867.8,245L802.2,245C797.674,245 794,244.157 794,243.119L794,185.701C794,184.663 797.674,183.82 802.2,183.82L867.8,183.82C872.326,183.82 876,184.663 876,185.701ZM824.943,188.148C824.943,187.626 824.828,187.428 824.281,187.223C823.993,187.124 823.589,187.038 823.099,186.965C823.589,186.899 823.993,186.806 824.252,186.701C824.684,186.516 824.771,186.317 824.771,185.927C824.771,185.418 824.425,185.141 823.589,184.949C822.926,184.797 821.947,184.711 820.736,184.711C819.613,184.711 818.604,184.797 817.884,184.956C817.163,185.121 816.76,185.339 816.76,185.683L816.76,185.987L819.094,185.987L819.094,185.656C819.094,185.346 819.786,185.194 820.736,185.194C821.255,185.194 821.63,185.233 821.918,185.306C822.292,185.412 822.437,185.564 822.437,185.96C822.437,186.357 822.321,186.516 821.86,186.634C821.63,186.701 821.226,186.734 820.736,186.734L819.641,186.734L819.641,187.196L820.736,187.196C821.284,187.196 821.716,187.243 822.004,187.322C822.465,187.447 822.609,187.573 822.609,188.148C822.609,188.63 822.408,188.802 821.976,188.915C821.659,189.007 821.226,189.04 820.736,189.04C819.757,189.04 818.95,188.882 818.95,188.564L818.95,188.247L816.616,188.247L816.616,188.544C816.616,188.901 817.048,189.113 817.797,189.271C818.489,189.437 819.613,189.523 820.736,189.523C821.889,189.523 822.984,189.43 823.704,189.271C824.742,189.04 824.943,188.763 824.943,188.148ZM821.601,215.531L821.601,214.136L816.846,214.136L816.846,214.605L819.123,214.605L819.123,215.551C819.123,215.934 818.287,216.205 816.846,216.205C816.04,216.205 815.492,216.132 815.146,216.026C814.426,215.802 814.311,215.425 814.311,214.308C814.311,213.191 814.426,212.814 815.146,212.59C815.492,212.484 816.04,212.411 816.846,212.411C818.748,212.411 819.094,212.801 819.123,213.118L821.572,213.118C821.543,212.742 821.111,212.411 820.16,212.193C819.382,212.015 818.287,211.902 816.846,211.902C815.233,211.902 814.109,212.048 813.331,212.246C812.005,212.583 811.833,213.006 811.833,214.308C811.833,215.61 812.005,216.033 813.331,216.37C814.109,216.568 815.233,216.714 816.846,216.714C819.526,216.714 821.572,216.317 821.601,215.531ZM834.856,216.661L834.856,211.955L832.378,211.955L832.378,215.174L827.133,211.955L824.828,211.955L824.828,216.661L827.306,216.661L827.306,213.442L832.608,216.661L834.856,216.661ZM810.19,216.661L805.436,211.955L803.044,211.955L798.261,216.661L800.854,216.661L801.834,215.551L806.588,215.551L807.568,216.661L810.19,216.661ZM806.127,215.042L802.295,215.042L804.225,212.874L806.127,215.042ZM834.337,201.902L831.888,201.902C831.859,202.1 831.686,202.305 831.225,202.444C830.908,202.537 830.39,202.609 829.612,202.609C828.805,202.609 828.257,202.537 827.911,202.431C827.191,202.206 827.076,201.829 827.076,200.712C827.076,199.596 827.191,199.219 827.911,198.994C828.257,198.888 828.805,198.816 829.612,198.816C830.39,198.816 830.908,198.888 831.225,198.981C831.715,199.12 831.859,199.318 831.888,199.516L834.337,199.516C834.308,199.133 833.819,198.796 832.868,198.584C832.061,198.406 831.052,198.307 829.612,198.307C827.998,198.307 826.874,198.446 826.096,198.65C824.742,199.007 824.598,199.411 824.598,200.712C824.598,202.014 824.742,202.418 826.096,202.774C826.874,202.979 827.998,203.118 829.612,203.118C830.966,203.118 831.974,203.026 832.781,202.86C833.79,202.649 834.308,202.299 834.337,201.902ZM809.239,208.733L809.239,207.338L804.485,207.338L804.485,207.808L806.761,207.808L806.761,208.753C806.761,209.136 805.925,209.407 804.485,209.407C803.678,209.407 803.13,209.334 802.785,209.229C802.064,209.004 801.949,208.627 801.949,207.51C801.949,206.393 802.064,206.017 802.785,205.792C803.13,205.686 803.678,205.613 804.485,205.613C806.386,205.613 806.732,206.003 806.761,206.321L809.21,206.321C809.182,205.944 808.749,205.613 807.798,205.395C807.02,205.217 805.925,205.105 804.485,205.105C802.871,205.105 801.747,205.25 800.969,205.448C799.644,205.785 799.471,206.208 799.471,207.51C799.471,208.812 799.644,209.235 800.969,209.572C801.747,209.771 802.871,209.916 804.485,209.916C807.164,209.916 809.21,209.519 809.239,208.733ZM852.491,223.459L847.736,218.753L845.345,218.753L840.561,223.459L843.155,223.459L844.134,222.348L848.889,222.348L849.869,223.459L852.491,223.459ZM848.428,221.839L844.595,221.839L846.526,219.672L848.428,221.839ZM820.304,230.256L820.304,229.774L814.541,229.774L819.123,227.54C819.757,227.229 820.304,226.826 820.304,226.476C820.304,226.126 819.814,225.894 819.094,225.736C818.374,225.577 817.336,225.498 816.212,225.498C815.089,225.498 813.965,225.59 813.244,225.749C812.524,225.914 812.092,226.126 812.092,226.469L812.092,226.773L814.426,226.773L814.426,226.456C814.426,226.139 815.233,225.98 816.212,225.98C817.192,225.98 817.97,226.139 817.97,226.456C817.97,226.833 817.509,227.137 817.048,227.368L812.034,229.807L812.034,230.256L820.304,230.256ZM831.283,228.849C831.283,228.095 830.995,227.877 830.245,227.672C829.64,227.494 828.747,227.401 827.739,227.401C827.191,227.401 826.672,227.441 826.269,227.514L829.583,225.551L827.191,225.551L823.733,227.666C823.186,227.996 822.898,228.373 822.898,228.849C822.898,229.483 823.099,229.741 823.935,229.992C824.598,230.19 825.693,230.309 827.076,230.309C828.344,230.309 829.554,230.21 830.274,229.992C831.023,229.774 831.283,229.516 831.283,228.849ZM828.949,228.842C828.949,229.311 828.891,229.562 828.372,229.701C828.056,229.781 827.623,229.827 827.105,229.827C826.586,229.827 826.125,229.787 825.837,229.701C825.318,229.562 825.232,229.311 825.232,228.842C825.232,228.373 825.318,228.115 825.837,227.976C826.125,227.89 826.586,227.851 827.105,227.851C827.623,227.851 828.084,227.89 828.372,227.976C828.862,228.122 828.949,228.373 828.949,228.842ZM835.259,194.946C835.259,194.364 834.136,194.014 832.378,193.835C833.963,193.657 834.942,193.333 834.942,192.831C834.942,192.051 832.464,191.516 828.978,191.516C825.693,191.516 823.128,191.998 822.955,192.798L825.894,192.798C826.038,192.381 827.191,192.124 828.978,192.124C830.649,192.124 832.003,192.375 832.003,192.851C832.003,193.28 831.023,193.564 828.891,193.564L828.401,193.564L828.401,194.153L828.891,194.153C831.196,194.153 832.32,194.45 832.32,194.926C832.32,195.422 830.879,195.706 828.978,195.706C827.278,195.706 825.75,195.494 825.635,194.992L822.696,194.992C822.811,195.911 825.693,196.314 828.978,196.314C832.407,196.314 835.259,195.851 835.259,194.946ZM813.648,189.47L813.648,188.815L810.795,188.815L810.795,189.47L813.648,189.47ZM840.302,204.668L838.026,204.668L832.695,210.352L834.971,210.352L840.302,204.668ZM852.491,209.863L847.736,205.157L845.345,205.157L840.561,209.863L843.155,209.863L844.134,208.753L848.889,208.753L849.869,209.863L852.491,209.863ZM848.428,208.244L844.595,208.244L846.526,206.076L848.428,208.244ZM866.149,189.47L866.149,184.764L863.671,184.764L863.671,187.983L858.427,184.764L856.122,184.764L856.122,189.47L858.6,189.47L858.6,186.251L863.902,189.47L866.149,189.47ZM837.824,184.764L835.115,184.764L832.118,188.551L829.151,184.764L826.413,184.764L830.851,189.47L833.386,189.47L837.824,184.764ZM820.304,209.863L820.304,209.381L814.541,209.381L819.123,207.147C819.757,206.836 820.304,206.433 820.304,206.083C820.304,205.732 819.814,205.501 819.094,205.343C818.374,205.184 817.336,205.105 816.212,205.105C815.089,205.105 813.965,205.197 813.244,205.356C812.524,205.521 812.092,205.732 812.092,206.076L812.092,206.38L814.426,206.38L814.426,206.063C814.426,205.746 815.233,205.587 816.212,205.587C817.192,205.587 817.97,205.746 817.97,206.063C817.97,206.44 817.509,206.744 817.048,206.975L812.034,209.414L812.034,209.863L820.304,209.863ZM831.283,208.548C831.283,208.026 831.139,207.834 830.62,207.642C830.332,207.537 829.929,207.451 829.439,207.378C829.9,207.305 830.303,207.213 830.562,207.107C830.995,206.922 831.139,206.73 831.139,206.34C831.139,205.832 830.851,205.561 829.929,205.349C829.237,205.184 828.2,205.105 827.076,205.105C825.952,205.105 824.972,205.184 824.252,205.349C823.33,205.561 823.042,205.832 823.042,206.34C823.042,206.73 823.186,206.922 823.618,207.107C823.877,207.213 824.281,207.305 824.742,207.378C824.252,207.451 823.848,207.537 823.56,207.642C823.042,207.834 822.898,208.026 822.898,208.548C822.898,209.129 823.07,209.407 824.137,209.658C824.857,209.823 825.952,209.916 827.105,209.916C828.228,209.916 829.352,209.823 830.044,209.658C831.11,209.407 831.283,209.129 831.283,208.548ZM828.949,208.528C828.949,208.991 828.805,209.182 828.344,209.308C828.027,209.394 827.623,209.433 827.105,209.433C826.586,209.433 826.125,209.394 825.837,209.308C825.376,209.182 825.232,208.991 825.232,208.528C825.232,208.019 825.347,207.861 825.837,207.728C826.154,207.642 826.586,207.603 827.105,207.603C827.623,207.603 828.027,207.642 828.344,207.728C828.834,207.861 828.949,208.019 828.949,208.528ZM828.805,206.367C828.805,206.81 828.632,206.949 828.2,207.054C827.911,207.12 827.537,207.147 827.105,207.147C826.644,207.147 826.269,207.12 825.981,207.054C825.549,206.949 825.376,206.81 825.376,206.367C825.376,205.924 825.549,205.792 825.981,205.686C826.269,205.62 826.644,205.587 827.105,205.587C827.537,205.587 827.911,205.62 828.2,205.686C828.632,205.792 828.805,205.924 828.805,206.367ZM852.837,243.852L852.837,243.251L844.48,243.251L850.906,241.446C852.174,241.089 852.837,240.845 852.837,240.428C852.837,239.616 850.416,239.107 846.901,239.107C843.414,239.107 840.936,239.635 840.936,240.435L843.875,240.435C843.875,239.906 845.345,239.708 846.901,239.708C848.803,239.708 849.897,239.999 849.897,240.422C849.897,240.66 849.581,240.832 848.803,241.05L840.907,243.251L840.907,243.852L852.837,243.852ZM848.284,214.308C848.284,213.033 848.14,212.61 846.814,212.286C846.065,212.094 844.97,211.955 843.299,211.955L838.573,211.955L838.573,216.661L843.299,216.661C844.97,216.661 846.065,216.522 846.814,216.33C848.14,216.007 848.284,215.584 848.284,214.308ZM845.806,214.308C845.806,215.392 845.748,215.755 844.97,215.973C844.595,216.079 844.019,216.152 843.212,216.152L841.051,216.152L841.051,212.464L843.212,212.464C844.019,212.464 844.595,212.537 844.97,212.643C845.748,212.861 845.806,213.224 845.806,214.308ZM852.347,198.36L849.638,198.36L846.641,202.147L843.673,198.36L840.936,198.36L845.373,203.065L847.909,203.065L852.347,198.36ZM864.449,203.065L861.308,200.931C863.095,200.739 863.786,200.356 863.786,199.701C863.786,198.67 862.058,198.36 858.945,198.36L854.306,198.36L854.306,203.065L856.784,203.065L856.784,201.043L859.003,201.043L861.827,203.065L864.449,203.065ZM861.308,199.701C861.308,200.204 860.876,200.541 858.974,200.541L856.784,200.541L856.784,198.869L858.974,198.869C860.876,198.869 861.308,199.199 861.308,199.701ZM853.096,189.47L853.096,188.961L847.65,188.961L847.65,187.361L852.347,187.361L852.347,186.853L847.65,186.853L847.65,185.273L853.096,185.273L853.096,184.764L845.172,184.764L845.172,189.47L853.096,189.47ZM814.916,242.028L814.916,241.307L807.424,241.307L807.424,241.916L811.804,241.916L811.804,242.18C811.804,242.484 811.544,242.722 810.795,242.92C809.988,243.138 808.778,243.257 807.424,243.257C806.185,243.257 805.147,243.151 804.369,242.966C803.361,242.715 803.159,242.431 803.159,241.499C803.159,240.567 803.361,240.283 804.369,240.032C805.147,239.847 806.185,239.741 807.424,239.741C809.729,239.741 811.227,240.045 811.746,240.561L814.858,240.561C814.311,239.761 811.746,239.107 807.424,239.107C805.176,239.107 803.447,239.279 802.122,239.583C800.134,240.045 800.047,240.514 800.047,241.499C800.047,242.484 800.134,242.953 802.122,243.416C803.447,243.72 805.176,243.892 807.424,243.892C809.585,243.892 811.544,243.726 813.072,243.356C814.426,243.019 814.916,242.642 814.916,242.028ZM837.478,243.852L837.478,243.251L829.122,243.251L835.547,241.446C836.815,241.089 837.478,240.845 837.478,240.428C837.478,239.616 835.058,239.107 831.542,239.107C828.056,239.107 825.577,239.635 825.577,240.435L828.517,240.435C828.517,239.906 829.986,239.708 831.542,239.708C833.444,239.708 834.539,239.999 834.539,240.422C834.539,240.66 834.222,240.832 833.444,241.05L825.549,243.251L825.549,243.852L837.478,243.852ZM859.896,223.459L859.896,218.753L857.562,218.753L854.566,219.321L854.566,219.943L857.562,219.381L857.562,223.459L859.896,223.459ZM809.239,229.126L809.239,227.732L804.485,227.732L804.485,228.201L806.761,228.201L806.761,229.146C806.761,229.529 805.925,229.8 804.485,229.8C803.678,229.8 803.13,229.728 802.785,229.622C802.064,229.397 801.949,229.021 801.949,227.904C801.949,226.787 802.064,226.41 802.785,226.185C803.13,226.08 803.678,226.007 804.485,226.007C806.386,226.007 806.732,226.397 806.761,226.714L809.21,226.714C809.182,226.337 808.749,226.007 807.798,225.789C807.02,225.61 805.925,225.498 804.485,225.498C802.871,225.498 801.747,225.643 800.969,225.842C799.644,226.179 799.471,226.602 799.471,227.904C799.471,229.206 799.644,229.629 800.969,229.966C801.747,230.164 802.871,230.309 804.485,230.309C807.164,230.309 809.21,229.913 809.239,229.126ZM831.369,219.196L831.369,218.753L822.754,218.753L822.754,219.929L825.03,219.929L825.03,219.235L829.006,219.235L823.589,223.459L825.952,223.459L831.369,219.196ZM840.302,218.264L838.026,218.264L832.695,223.948L834.971,223.948L840.302,218.264ZM807.741,188.148C807.741,187.626 807.626,187.428 807.078,187.223C806.79,187.124 806.386,187.038 805.897,186.965C806.386,186.899 806.79,186.806 807.049,186.701C807.481,186.516 807.568,186.317 807.568,185.927C807.568,185.418 807.222,185.141 806.386,184.949C805.724,184.797 804.744,184.711 803.534,184.711C802.41,184.711 801.401,184.797 800.681,184.956C799.961,185.121 799.557,185.339 799.557,185.683L799.557,185.987L801.891,185.987L801.891,185.656C801.891,185.346 802.583,185.194 803.534,185.194C804.052,185.194 804.427,185.233 804.715,185.306C805.09,185.412 805.234,185.564 805.234,185.96C805.234,186.357 805.119,186.516 804.658,186.634C804.427,186.701 804.024,186.734 803.534,186.734L802.439,186.734L802.439,187.196L803.534,187.196C804.081,187.196 804.513,187.243 804.802,187.322C805.263,187.447 805.407,187.573 805.407,188.148C805.407,188.63 805.205,188.802 804.773,188.915C804.456,189.007 804.024,189.04 803.534,189.04C802.554,189.04 801.747,188.882 801.747,188.564L801.747,188.247L799.413,188.247L799.413,188.544C799.413,188.901 799.845,189.113 800.595,189.271C801.286,189.437 802.41,189.523 803.534,189.523C804.686,189.523 805.781,189.43 806.502,189.271C807.539,189.04 807.741,188.763 807.741,188.148ZM819.238,196.267L819.238,195.461L815.723,195.461L815.723,196.267L819.238,196.267ZM862.317,209.863L862.317,209.381L856.554,209.381L861.135,207.147C861.769,206.836 862.317,206.433 862.317,206.083C862.317,205.732 861.827,205.501 861.107,205.343C860.386,205.184 859.349,205.105 858.225,205.105C857.101,205.105 855.978,205.197 855.257,205.356C854.537,205.521 854.105,205.732 854.105,206.076L854.105,206.38L856.439,206.38L856.439,206.063C856.439,205.746 857.245,205.587 858.225,205.587C859.205,205.587 859.983,205.746 859.983,206.063C859.983,206.44 859.522,206.744 859.061,206.975L854.047,209.414L854.047,209.863L862.317,209.863ZM809.239,222.328L809.239,220.934L804.485,220.934L804.485,221.403L806.761,221.403L806.761,222.348C806.761,222.732 805.925,223.003 804.485,223.003C803.678,223.003 803.13,222.93 802.785,222.824C802.064,222.599 801.949,222.223 801.949,221.106C801.949,219.989 802.064,219.612 802.785,219.387C803.13,219.282 803.678,219.209 804.485,219.209C806.386,219.209 806.732,219.599 806.761,219.916L809.21,219.916C809.182,219.539 808.749,219.209 807.798,218.991C807.02,218.813 805.925,218.7 804.485,218.7C802.871,218.7 801.747,218.846 800.969,219.044C799.644,219.381 799.471,219.804 799.471,221.106C799.471,222.408 799.644,222.831 800.969,223.168C801.747,223.366 802.871,223.511 804.485,223.511C807.164,223.511 809.21,223.115 809.239,222.328ZM820.304,223.459L820.304,222.976L814.541,222.976L819.123,220.742C819.757,220.432 820.304,220.029 820.304,219.678C820.304,219.328 819.814,219.097 819.094,218.938C818.374,218.779 817.336,218.7 816.212,218.7C815.089,218.7 813.965,218.793 813.244,218.951C812.524,219.117 812.092,219.328 812.092,219.672L812.092,219.976L814.426,219.976L814.426,219.658C814.426,219.341 815.233,219.183 816.212,219.183C817.192,219.183 817.97,219.341 817.97,219.658C817.97,220.035 817.509,220.339 817.048,220.57L812.034,223.009L812.034,223.459L820.304,223.459ZM811.89,194.946C811.89,194.364 810.766,194.014 809.009,193.835C810.593,193.657 811.573,193.333 811.573,192.831C811.573,192.051 809.095,191.516 805.608,191.516C802.323,191.516 799.759,191.998 799.586,192.798L802.525,192.798C802.669,192.381 803.822,192.124 805.608,192.124C807.28,192.124 808.634,192.375 808.634,192.851C808.634,193.28 807.654,193.564 805.522,193.564L805.032,193.564L805.032,194.153L805.522,194.153C807.827,194.153 808.951,194.45 808.951,194.926C808.951,195.422 807.51,195.706 805.608,195.706C803.908,195.706 802.381,195.494 802.266,194.992L799.327,194.992C799.442,195.911 802.323,196.314 805.608,196.314C809.037,196.314 811.89,195.851 811.89,194.946ZM862.23,229.331L862.23,226.476C862.23,226.126 861.798,225.914 861.078,225.749C860.357,225.59 859.234,225.498 858.11,225.498C856.986,225.498 855.891,225.59 855.171,225.749C854.45,225.914 854.018,226.126 854.018,226.476L854.018,229.331C854.018,229.681 854.45,229.893 855.171,230.058C855.891,230.217 856.986,230.309 858.11,230.309C859.234,230.309 860.357,230.217 861.078,230.058C861.798,229.893 862.23,229.681 862.23,229.331ZM859.896,229.351C859.896,229.668 859.09,229.827 858.11,229.827C857.13,229.827 856.352,229.668 856.352,229.351L856.352,226.456C856.352,226.139 857.13,225.98 858.11,225.98C859.09,225.98 859.896,226.139 859.896,226.456L859.896,229.351ZM852.491,230.256L847.736,225.551L845.345,225.551L840.561,230.256L843.155,230.256L844.134,229.146L848.889,229.146L849.869,230.256L852.491,230.256ZM848.428,228.637L844.595,228.637L846.526,226.469L848.428,228.637ZM840.302,225.062L838.026,225.062L832.695,230.745L834.971,230.745L840.302,225.062ZM810.19,203.065L805.436,198.36L803.044,198.36L798.261,203.065L800.854,203.065L801.834,201.955L806.588,201.955L807.568,203.065L810.19,203.065ZM806.127,201.446L802.295,201.446L804.225,199.278L806.127,201.446ZM815.751,237.054L811.026,234.972C813.331,234.827 815.117,234.397 815.117,233.723C815.117,232.924 812.639,232.349 808.749,232.349L800.796,232.349L800.796,237.054L803.908,237.054L803.908,235.071L807.798,235.071L812.121,237.054L815.751,237.054ZM812.005,233.73C812.005,234.192 810.593,234.463 808.519,234.463L803.908,234.463L803.908,232.99L808.519,232.99C810.593,232.99 812.005,233.267 812.005,233.73ZM821.889,200.712C821.889,199.437 821.745,199.014 820.419,198.69C819.67,198.498 818.575,198.36 816.904,198.36L812.178,198.36L812.178,203.065L816.904,203.065C818.575,203.065 819.67,202.926 820.419,202.735C821.745,202.411 821.889,201.988 821.889,200.712ZM819.411,200.712C819.411,201.796 819.353,202.16 818.575,202.378C818.201,202.484 817.624,202.556 816.818,202.556L814.656,202.556L814.656,198.869L816.818,198.869C817.624,198.869 818.201,198.941 818.575,199.047C819.353,199.265 819.411,199.629 819.411,200.712ZM834.078,235.468L834.078,232.349L830.966,232.349L830.966,235.435C830.966,236.063 829.266,236.453 826.701,236.453C824.137,236.453 822.465,236.063 822.465,235.435L822.465,232.349L819.353,232.349L819.353,235.468C819.353,236.44 822.523,237.094 826.701,237.094C830.879,237.094 834.078,236.44 834.078,235.468ZM854.566,237.054L854.566,232.349L851.454,232.349L851.454,235.653L841.973,232.349L839.121,232.349L839.121,237.054L842.233,237.054L842.233,233.743L851.713,237.054L854.566,237.054ZM852.952,191.562L849.667,191.562L844.941,194.985L840.216,191.562L836.988,191.562L843.731,196.267L846.152,196.267L852.952,191.562Z"/>
        </g>
        <g transform="matrix(1.0122,0,0,1.96143,-76.6436,209.805)">
            <path d="M876,188.052L876,240.768C876,243.104 872.326,245 867.8,245L802.2,245C797.674,245 794,243.104 794,240.768L794,188.052C794,185.716 797.674,183.82 802.2,183.82L867.8,183.82C872.326,183.82 876,185.716 876,188.052ZM852.693,208.883L852.693,204.184C852.693,202.295 850.042,201.15 846.757,201.15C843.501,201.15 840.849,202.295 840.849,204.184L840.849,208.883C840.849,210.771 843.501,211.916 846.757,211.916C850.042,211.916 852.693,210.771 852.693,208.883ZM849.753,208.838C849.753,209.849 848.63,210.563 846.757,210.563C844.912,210.563 843.789,209.849 843.789,208.838L843.789,204.228C843.789,203.217 844.912,202.503 846.757,202.503C848.63,202.503 849.753,203.217 849.753,204.228L849.753,208.838ZM814.916,223.018L814.916,221.397L807.424,221.397L807.424,222.765L811.804,222.765L811.804,223.36C811.804,224.044 811.544,224.579 810.795,225.025C809.988,225.516 808.778,225.784 807.424,225.784C806.185,225.784 805.147,225.546 804.369,225.129C803.361,224.564 803.159,223.925 803.159,221.828C803.159,219.731 803.361,219.092 804.369,218.527C805.147,218.111 806.185,217.873 807.424,217.873C809.729,217.873 811.227,218.557 811.746,219.717L814.858,219.717C814.311,217.917 811.746,216.445 807.424,216.445C805.176,216.445 803.447,216.832 802.122,217.516C800.134,218.557 800.047,219.612 800.047,221.828C800.047,224.044 800.134,225.1 802.122,226.14C803.447,226.824 805.176,227.211 807.424,227.211C809.585,227.211 811.544,226.839 813.072,226.007C814.426,225.248 814.916,224.401 814.916,223.018ZM833.963,227.122L833.963,216.534L831.023,216.534L827.018,218.319L827.018,219.999L831.023,218.185L831.023,227.122L833.963,227.122ZM852.837,219.612C852.837,217.65 850.301,216.445 846.757,216.445C843.212,216.445 840.705,217.724 840.705,219.672C840.705,221.531 843.097,222.735 846.065,222.735C846.699,222.735 847.362,222.691 847.909,222.572L843.501,227.122L846.641,227.122L851.309,222.215C852.203,221.293 852.837,220.475 852.837,219.612ZM849.897,219.642C849.897,220.787 848.601,221.471 846.757,221.471C844.797,221.471 843.645,220.683 843.645,219.642C843.645,218.512 844.912,217.798 846.757,217.798C848.601,217.798 849.897,218.512 849.897,219.642ZM814.916,238.313L814.916,236.692L807.424,236.692L807.424,238.06L811.804,238.06L811.804,238.655C811.804,239.339 811.544,239.874 810.795,240.32C809.988,240.811 808.778,241.079 807.424,241.079C806.185,241.079 805.147,240.841 804.369,240.424C803.361,239.859 803.159,239.22 803.159,237.123C803.159,235.026 803.361,234.387 804.369,233.822C805.147,233.406 806.185,233.168 807.424,233.168C809.729,233.168 811.227,233.852 811.746,235.012L814.858,235.012C814.311,233.212 811.746,231.74 807.424,231.74C805.176,231.74 803.447,232.127 802.122,232.811C800.134,233.852 800.047,234.907 800.047,237.123C800.047,239.339 800.134,240.395 802.122,241.435C803.447,242.119 805.176,242.506 807.424,242.506C809.585,242.506 811.544,242.134 813.072,241.302C814.426,240.543 814.916,239.696 814.916,238.313ZM833.963,242.417L833.963,231.829L831.023,231.829L827.018,233.614L827.018,235.294L831.023,233.48L831.023,242.417L833.963,242.417ZM853.096,239.428C853.096,238.164 851.713,237.391 850.272,236.945C851.598,236.528 852.75,235.785 852.75,234.67C852.75,232.9 850.099,231.74 846.757,231.74C843.414,231.74 840.792,232.9 840.792,234.67C840.792,235.785 841.944,236.528 843.27,236.945C841.829,237.391 840.446,238.164 840.446,239.428C840.446,241.346 843.241,242.506 846.757,242.506C850.272,242.506 853.096,241.346 853.096,239.428ZM850.128,239.398C850.128,240.38 848.658,241.153 846.757,241.153C844.855,241.153 843.385,240.38 843.385,239.398C843.385,238.417 844.855,237.629 846.757,237.629C848.658,237.629 850.128,238.417 850.128,239.398ZM849.811,234.714C849.811,235.651 848.543,236.32 846.757,236.32C844.97,236.32 843.731,235.651 843.731,234.714C843.731,233.792 844.97,233.093 846.757,233.093C848.543,233.093 849.811,233.792 849.811,234.714ZM837.478,196.532L837.478,195.179L829.122,195.179L835.547,191.119C836.815,190.316 837.478,189.766 837.478,188.829C837.478,187 835.058,185.855 831.542,185.855C828.056,185.855 825.577,187.045 825.577,188.844L828.517,188.844C828.517,187.654 829.986,187.208 831.542,187.208C833.444,187.208 834.539,187.863 834.539,188.814C834.539,189.35 834.222,189.736 833.444,190.227L825.549,195.179L825.549,196.532L837.478,196.532ZM849.321,196.532L849.321,185.944L846.382,185.944L842.377,187.729L842.377,189.409L846.382,187.595L846.382,196.532L849.321,196.532ZM814.916,207.723L814.916,206.102L807.424,206.102L807.424,207.47L811.804,207.47L811.804,208.065C811.804,208.749 811.544,209.284 810.795,209.73C809.988,210.221 808.778,210.489 807.424,210.489C806.185,210.489 805.147,210.251 804.369,209.834C803.361,209.269 803.159,208.63 803.159,206.533C803.159,204.436 803.361,203.797 804.369,203.232C805.147,202.816 806.185,202.578 807.424,202.578C809.729,202.578 811.227,203.262 811.746,204.422L814.858,204.422C814.311,202.622 811.746,201.15 807.424,201.15C805.176,201.15 803.447,201.537 802.122,202.221C800.134,203.262 800.047,204.317 800.047,206.533C800.047,208.749 800.134,209.805 802.122,210.845C803.447,211.529 805.176,211.916 807.424,211.916C809.585,211.916 811.544,211.544 813.072,210.712C814.426,209.953 814.916,209.106 814.916,207.723ZM837.478,211.827L837.478,210.474L829.122,210.474L835.547,206.414C836.815,205.611 837.478,205.061 837.478,204.124C837.478,202.295 835.058,201.15 831.542,201.15C828.056,201.15 825.577,202.34 825.577,204.139L828.517,204.139C828.517,202.949 829.986,202.503 831.542,202.503C833.444,202.503 834.539,203.158 834.539,204.109C834.539,204.645 834.222,205.031 833.444,205.522L825.549,210.474L825.549,211.827L837.478,211.827ZM814.916,192.428L814.916,190.807L807.424,190.807L807.424,192.175L811.804,192.175L811.804,192.77C811.804,193.454 811.544,193.989 810.795,194.435C809.988,194.926 808.778,195.194 807.424,195.194C806.185,195.194 805.147,194.956 804.369,194.539C803.361,193.974 803.159,193.335 803.159,191.238C803.159,189.141 803.361,188.502 804.369,187.937C805.147,187.521 806.185,187.283 807.424,187.283C809.729,187.283 811.227,187.967 811.746,189.127L814.858,189.127C814.311,187.327 811.746,185.855 807.424,185.855C805.176,185.855 803.447,186.242 802.122,186.926C800.134,187.967 800.047,189.022 800.047,191.238C800.047,193.454 800.134,194.51 802.122,195.55C803.447,196.234 805.176,196.621 807.424,196.621C809.585,196.621 811.544,196.249 813.072,195.417C814.426,194.658 814.916,193.811 814.916,192.428Z"/>
        </g>
        <g transform="matrix(1.0122,0,0,0.980713,-76.6436,540.08)">
            <path d="M876,189.938L876,238.882C876,242.259 873.344,245 870.072,245L799.928,245C796.656,245 794,242.259 794,238.882L794,189.938C794,186.561 796.656,183.82 799.928,183.82L870.072,183.82C873.344,183.82 876,186.561 876,189.938ZM833.963,239.834L833.963,218.659L831.023,218.659L827.018,222.227L827.018,225.588L831.023,221.96L831.023,239.834L833.963,239.834ZM814.916,201.035L814.916,197.794L807.424,197.794L807.424,200.53L811.804,200.53L811.804,201.719C811.804,203.087 811.544,204.158 810.795,205.05C809.988,206.032 808.778,206.567 807.424,206.567C806.185,206.567 805.147,206.091 804.369,205.258C803.361,204.128 803.159,202.85 803.159,198.656C803.159,194.463 803.361,193.184 804.369,192.054C805.147,191.221 806.185,190.745 807.424,190.745C809.729,190.745 811.227,192.113 811.746,194.433L814.858,194.433C814.311,190.834 811.746,187.89 807.424,187.89C805.176,187.89 803.447,188.663 802.122,190.031C800.134,192.113 800.047,194.225 800.047,198.656C800.047,203.087 800.134,205.199 802.122,207.281C803.447,208.649 805.176,209.422 807.424,209.422C809.585,209.422 811.544,208.679 813.072,207.013C814.426,205.496 814.916,203.801 814.916,201.035ZM853.125,190.775L853.125,188.069L840.907,188.069L840.907,194.106L843.731,194.106L843.731,190.775L849.984,190.775L843.097,209.244L846.267,209.244L853.125,190.775ZM852.837,233.558C852.837,229.841 850.416,227.432 847.448,227.432C846.814,227.432 846.18,227.521 845.633,227.759L850.042,218.659L846.901,218.659L842.233,228.473C841.339,230.317 840.705,231.953 840.705,233.677C840.705,237.603 843.241,240.012 846.785,240.012C850.33,240.012 852.837,237.454 852.837,233.558ZM849.897,233.618C849.897,235.878 848.601,237.306 846.757,237.306C844.912,237.306 843.645,235.878 843.645,233.618C843.645,231.328 844.912,229.96 846.757,229.96C848.716,229.96 849.897,231.536 849.897,233.618ZM814.916,231.625L814.916,228.384L807.424,228.384L807.424,231.12L811.804,231.12L811.804,232.309C811.804,233.677 811.544,234.748 810.795,235.64C809.988,236.622 808.778,237.157 807.424,237.157C806.185,237.157 805.147,236.681 804.369,235.848C803.361,234.718 803.159,233.44 803.159,229.246C803.159,225.053 803.361,223.774 804.369,222.644C805.147,221.811 806.185,221.335 807.424,221.335C809.729,221.335 811.227,222.703 811.746,225.023L814.858,225.023C814.311,221.424 811.746,218.48 807.424,218.48C805.176,218.48 803.447,219.253 802.122,220.621C800.134,222.703 800.047,224.815 800.047,229.246C800.047,233.677 800.134,235.789 802.122,237.871C803.447,239.239 805.176,240.012 807.424,240.012C809.585,240.012 811.544,239.269 813.072,237.603C814.426,236.086 814.916,234.391 814.916,231.625ZM833.963,209.244L833.963,188.069L831.023,188.069L827.018,191.637L827.018,194.998L831.023,191.37L831.023,209.244L833.963,209.244Z"/>
        </g>
        <g transform="matrix(1.0122,0,0,0.980713,-76.6436,0.0796909)">
            <path d="M876,189.938L876,238.882C876,242.259 873.344,245 870.072,245L799.928,245C796.656,245 794,242.259 794,238.882L794,189.938C794,186.561 796.656,183.82 799.928,183.82L870.072,183.82C873.344,183.82 876,186.561 876,189.938ZM831.542,203.266C831.542,200.589 830.044,199.013 828.459,198.359C829.842,197.794 831.225,196.158 831.225,193.868C831.225,190.299 828.834,188.069 825.03,188.069L817.048,188.069L817.048,209.244L825.347,209.244C828.978,209.244 831.542,207.162 831.542,203.266ZM828.43,203.117C828.43,204.991 827.22,206.359 825.059,206.359L820.16,206.359L820.16,199.905L825.059,199.905C827.22,199.905 828.43,201.244 828.43,203.117ZM828.113,193.987C828.113,195.95 826.759,197.02 824.771,197.02L820.16,197.02L820.16,190.953L824.771,190.953C826.759,190.953 828.113,192.024 828.113,193.987ZM814.224,188.069L810.939,188.069L806.214,203.474L801.488,188.069L798.261,188.069L805.003,209.244L807.424,209.244L814.224,188.069ZM814.224,218.659L810.939,218.659L806.214,234.064L801.488,218.659L798.261,218.659L805.003,239.834L807.424,239.834L814.224,218.659ZM829.871,233.796C829.871,231.953 829.295,230.495 828.2,229.454C827.306,228.622 826.269,228.176 824.396,227.878L821.947,227.491C820.823,227.313 820.218,227.016 819.699,226.54C819.152,226.064 818.95,225.35 818.95,224.577C818.95,222.644 820.247,221.276 822.667,221.276C824.425,221.276 825.923,221.662 827.191,222.911L829.151,220.889C827.393,219.194 825.52,218.48 822.782,218.48C818.518,218.48 815.924,220.978 815.924,224.666C815.924,226.421 816.443,227.789 817.452,228.741C818.345,229.633 819.641,230.168 821.313,230.436L823.733,230.793C824.771,230.941 825.462,231.209 825.981,231.685C826.557,232.19 826.788,232.934 826.788,233.886C826.788,235.967 825.26,237.157 822.552,237.157C820.477,237.157 818.777,236.651 817.279,235.105L815.233,237.217C817.221,239.269 819.411,240.012 822.494,240.012C826.816,240.012 829.871,237.692 829.871,233.796ZM846.324,218.659L842.924,218.659L838.631,227.967L834.337,218.659L830.937,218.659L837.075,231.12L837.075,239.834L840.187,239.834L840.187,231.12L846.324,218.659ZM861.971,233.796C861.971,231.953 861.395,230.495 860.3,229.454C859.407,228.622 858.369,228.176 856.496,227.878L854.047,227.491C852.923,227.313 852.318,227.016 851.799,226.54C851.252,226.064 851.05,225.35 851.05,224.577C851.05,222.644 852.347,221.276 854.767,221.276C856.525,221.276 858.023,221.662 859.291,222.911L861.251,220.889C859.493,219.194 857.62,218.48 854.883,218.48C850.618,218.48 848.024,220.978 848.024,224.666C848.024,226.421 848.543,227.789 849.552,228.741C850.445,229.633 851.742,230.168 853.413,230.436L855.833,230.793C856.871,230.941 857.562,231.209 858.081,231.685C858.657,232.19 858.888,232.934 858.888,233.886C858.888,235.967 857.361,237.157 854.652,237.157C852.577,237.157 850.877,236.651 849.379,235.105L847.333,237.217C849.321,239.269 851.511,240.012 854.594,240.012C858.917,240.012 861.971,237.692 861.971,233.796ZM850.56,202.106L850.56,188.069L847.448,188.069L847.448,201.957C847.448,204.783 845.748,206.537 843.184,206.537C840.619,206.537 838.948,204.783 838.948,201.957L838.948,188.069L835.836,188.069L835.836,202.106C835.836,206.478 839.005,209.422 843.184,209.422C847.362,209.422 850.56,206.478 850.56,202.106ZM868.426,203.206C868.426,201.363 867.849,199.905 866.754,198.864C865.861,198.032 864.824,197.586 862.951,197.288L860.502,196.901C859.378,196.723 858.773,196.426 858.254,195.95C857.706,195.474 857.505,194.76 857.505,193.987C857.505,192.054 858.801,190.686 861.222,190.686C862.98,190.686 864.478,191.072 865.746,192.321L867.705,190.299C865.948,188.604 864.075,187.89 861.337,187.89C857.072,187.89 854.479,190.388 854.479,194.076C854.479,195.831 854.998,197.199 856.006,198.151C856.9,199.043 858.196,199.578 859.868,199.846L862.288,200.203C863.325,200.351 864.017,200.619 864.536,201.095C865.112,201.6 865.342,202.344 865.342,203.296C865.342,205.377 863.815,206.567 861.107,206.567C859.032,206.567 857.332,206.061 855.833,204.515L853.788,206.627C855.776,208.679 857.966,209.422 861.049,209.422C865.371,209.422 868.426,207.102 868.426,203.206Z"/>
        </g>
        <g transform="matrix(1.5,0,0,0.333333,-532.961,150.354)">
            <path d="M854.114,320.65L854.114,311.112L849.058,311.112L849.058,319.162L852.014,319.162L852.014,322.662C852.014,326.687 851.839,329.837 851.333,332.462C850.789,335.35 849.972,336.925 849.058,336.925C848.222,336.925 847.522,335.525 846.997,333.075C846.317,329.75 846.181,325.987 846.181,313.65C846.181,301.312 846.317,297.55 846.997,294.225C847.522,291.775 848.222,290.375 849.058,290.375C850.614,290.375 851.625,294.4 851.975,301.225L854.075,301.225C853.706,290.638 851.975,281.975 849.058,281.975C847.542,281.975 846.375,284.25 845.481,288.275C844.139,294.4 844.081,300.612 844.081,313.65C844.081,326.687 844.139,332.9 845.481,339.025C846.375,343.05 847.542,345.325 849.058,345.325C850.517,345.325 851.839,343.137 852.869,338.237C853.783,333.775 854.114,328.787 854.114,320.65Z" style="fill-rule:nonzero;"/>
            <path d="M867.628,344.8L867.628,282.5L865.528,282.5L865.528,326.25L859.131,282.5L857.206,282.5L857.206,344.8L859.306,344.8L859.306,300.962L865.703,344.8L867.628,344.8Z" style="fill-rule:nonzero;"/>
            <path d="M881.083,313.65C881.083,303.675 881.044,295.975 880.033,290.375C879.061,284.95 877.836,282.5 876.106,282.5L871.244,282.5L871.244,344.8L876.106,344.8C877.836,344.8 879.061,342.35 880.033,336.925C881.044,331.325 881.083,323.625 881.083,313.65ZM878.983,313.65C878.983,322.925 878.925,328.7 878.244,332.112C877.661,335.175 876.864,336.4 875.872,336.4L873.344,336.4L873.344,290.9L875.872,290.9C876.864,290.9 877.661,292.125 878.244,295.187C878.925,298.6 878.983,304.375 878.983,313.65Z" style="fill-rule:nonzero;"/>
        </g>
        <g transform="matrix(1.5,0,0,0.333333,-532.961,450.354)">
            <path d="M854.114,320.65L854.114,311.112L849.058,311.112L849.058,319.162L852.014,319.162L852.014,322.662C852.014,326.687 851.839,329.837 851.333,332.462C850.789,335.35 849.972,336.925 849.058,336.925C848.222,336.925 847.522,335.525 846.997,333.075C846.317,329.75 846.181,325.987 846.181,313.65C846.181,301.312 846.317,297.55 846.997,294.225C847.522,291.775 848.222,290.375 849.058,290.375C850.614,290.375 851.625,294.4 851.975,301.225L854.075,301.225C853.706,290.638 851.975,281.975 849.058,281.975C847.542,281.975 846.375,284.25 845.481,288.275C844.139,294.4 844.081,300.612 844.081,313.65C844.081,326.687 844.139,332.9 845.481,339.025C846.375,343.05 847.542,345.325 849.058,345.325C850.517,345.325 851.839,343.137 852.869,338.237C853.783,333.775 854.114,328.787 854.114,320.65Z" style="fill-rule:nonzero;"/>
            <path d="M867.628,344.8L867.628,282.5L865.528,282.5L865.528,326.25L859.131,282.5L857.206,282.5L857.206,344.8L859.306,344.8L859.306,300.962L865.703,344.8L867.628,344.8Z" style="fill-rule:nonzero;"/>
            <path d="M881.083,313.65C881.083,303.675 881.044,295.975 880.033,290.375C879.061,284.95 877.836,282.5 876.106,282.5L871.244,282.5L871.244,344.8L876.106,344.8C877.836,344.8 879.061,342.35 880.033,336.925C881.044,331.325 881.083,323.625 881.083,313.65ZM878.983,313.65C878.983,322.925 878.925,328.7 878.244,332.112C877.661,335.175 876.864,336.4 875.872,336.4L873.344,336.4L873.344,290.9L875.872,290.9C876.864,290.9 877.661,292.125 878.244,295.187C878.925,298.6 878.983,304.375 878.983,313.65Z" style="fill-rule:nonzero;"/>
        </g>
        <g transform="matrix(1.5,0,0,0.333333,-532.961,600.354)">
            <path d="M854.114,320.65L854.114,311.112L849.058,311.112L849.058,319.162L852.014,319.162L852.014,322.662C852.014,326.687 851.839,329.837 851.333,332.462C850.789,335.35 849.972,336.925 849.058,336.925C848.222,336.925 847.522,335.525 846.997,333.075C846.317,329.75 846.181,325.987 846.181,313.65C846.181,301.312 846.317,297.55 846.997,294.225C847.522,291.775 848.222,290.375 849.058,290.375C850.614,290.375 851.625,294.4 851.975,301.225L854.075,301.225C853.706,290.638 851.975,281.975 849.058,281.975C847.542,281.975 846.375,284.25 845.481,288.275C844.139,294.4 844.081,300.612 844.081,313.65C844.081,326.687 844.139,332.9 845.481,339.025C846.375,343.05 847.542,345.325 849.058,345.325C850.517,345.325 851.839,343.137 852.869,338.237C853.783,333.775 854.114,328.787 854.114,320.65Z" style="fill-rule:nonzero;"/>
            <path d="M867.628,344.8L867.628,282.5L865.528,282.5L865.528,326.25L859.131,282.5L857.206,282.5L857.206,344.8L859.306,344.8L859.306,300.962L865.703,344.8L867.628,344.8Z" style="fill-rule:nonzero;"/>
            <path d="M881.083,313.65C881.083,303.675 881.044,295.975 880.033,290.375C879.061,284.95 877.836,282.5 876.106,282.5L871.244,282.5L871.244,344.8L876.106,344.8C877.836,344.8 879.061,342.35 880.033,336.925C881.044,331.325 881.083,323.625 881.083,313.65ZM878.983,313.65C878.983,322.925 878.925,328.7 878.244,332.112C877.661,335.175 876.864,336.4 875.872,336.4L873.344,336.4L873.344,290.9L875.872,290.9C876.864,290.9 877.661,292.125 878.244,295.187C878.925,298.6 878.983,304.375 878.983,313.65Z" style="fill-rule:nonzero;"/>
        </g>
    </g>
</svg>
